<svg id="Layer_3" enable-background="new 0 0 64 64" height="512" viewBox="0 0 64 64" width="512" xmlns="http://www.w3.org/2000/svg"><path d="m8.272 6.858h25.456v28.284h-25.456z" fill="#f0bc5e" transform="matrix(.707 -.707 .707 .707 -8.699 21)"/><path d="m13 45.757h2v8.485h-2z" transform="matrix(.707 -.707 .707 .707 -31.255 24.544)"/><path d="m28 53.414-17.414-17.414 3.707-3.707 1.414 1.414-2.293 2.293 14.586 14.586 22.586-22.586-14.586-14.586-2.293 2.293-1.414-1.414 3.707-3.707 17.414 17.414z"/><path d="m29.929 36h14.142v2h-14.142z" transform="matrix(.707 -.707 .707 .707 -15.326 37)"/><path d="m27.586 44h2.828v2h-2.828z" transform="matrix(.707 -.707 .707 .707 -23.326 33.686)"/><path d="m61.293 17.879-15.172-15.172c-1.1-1.101-2.564-1.707-4.121-1.707s-3.021.606-4.121 1.707l-8.586 8.586 1.414 1.414 7.293-7.293 5.856 5.856-1 3 6.874 6.874 3-1 5.856 5.856-30.586 30.586-20.586-20.586 5.293-5.293-1.414-1.414-8.586 8.586c-1.085 1.085-1.707 2.587-1.707 4.121s.622 3.036 1.707 4.121l15.172 15.172c1.1 1.101 2.564 1.707 4.121 1.707s3.021-.606 4.121-1.707l35.172-35.172c1.085-1.085 1.707-2.587 1.707-4.121s-.622-3.036-1.707-4.121zm-36.586 42c-1.446 1.445-3.968 1.445-5.414 0l-15.172-15.172c-.712-.713-1.121-1.699-1.121-2.707s.409-1.994 1.121-2.707l1.879-1.879 20.586 20.586zm35.281-35.305-6.718-6.718-3 1-5.126-5.126 1-3-6.717-6.716c1.463-1.324 3.875-1.296 5.28.108l15.172 15.172c.712.712 1.121 1.698 1.121 2.706 0 .95-.374 1.873-1.012 2.574z"/><path d="m15 28c-.913 0-1.77-.355-2.415-1l-1.392-1.393c-.769-.768-1.193-1.793-1.193-2.881 0-.629.149-1.259.43-1.822l.552-1.104c2.12-4.239 5.687-7.603 10.044-9.47.511-.219 1.051-.33 1.605-.33 1.167 0 2.218.435 2.977 1.193l1.392 1.393c.645.646 1 1.503 1 2.414s-.355 1.769-1 2.414l-1.764 1.763c-.529.53-1.235.823-1.986.823h-.132c-1.071 0-2.034-.595-2.513-1.553-.137-.276-.415-.447-.723-.447h-.132c-.216 0-.419.084-.572.237l-.941.939c-.153.154-.237.357-.237.573v.133c0 .309.171.586.447.724.958.479 1.553 1.442 1.553 2.512v.133c0 .75-.292 1.455-.822 1.986l-1.764 1.763c-.644.645-1.501 1-2.414 1zm7.726-16c-.377 0-.652.057-.912.168-3.923 1.682-7.134 4.709-9.043 8.526l-.552 1.104c-.143.287-.219.607-.219.928 0 .555.216 1.076.608 1.468l1.392 1.392c.534.535 1.466.535 2 0l1.764-1.763c.152-.153.236-.356.236-.572v-.133c0-.309-.171-.586-.447-.724-.958-.479-1.553-1.442-1.553-2.512v-.133c0-.75.292-1.455.822-1.986l.941-.939c.53-.531 1.236-.824 1.987-.824h.132c1.071 0 2.034.595 2.513 1.553.137.276.415.447.723.447h.132c.216 0 .419-.084.572-.237l1.764-1.763c.267-.268.414-.622.414-1s-.147-.732-.415-1l-1.392-1.393c-.385-.385-.921-.607-1.467-.607z"/><path d="m22 26v-2c1.103 0 2-.897 2-2h2c0 2.206-1.794 4-4 4z"/><path d="m22 30v-2c3.309 0 6-2.691 6-6h2c0 4.411-3.589 8-8 8z"/></svg>