<svg id="Layer_3" enable-background="new 0 0 64 64" height="512" viewBox="0 0 64 64" width="512" xmlns="http://www.w3.org/2000/svg"><path d="m13 45.757h2v8.485h-2z" transform="matrix(.707 -.707 .707 .707 -31.255 24.544)"/><path d="m36 10.586-3.707 3.707 9.707 9.707-18 18-9.707-9.707-3.707 3.707 17.414 17.414 25.414-25.414z" fill="#f0bc5e"/><path d="m61.293 17.879-15.172-15.172c-1.1-1.101-2.564-1.707-4.121-1.707s-3.021.606-4.121 1.707l-7.879 7.879-10-10-19.414 19.414 10 10-7.879 7.879c-1.101 1.1-1.707 2.564-1.707 4.121s.606 3.021 1.707 4.121l15.172 15.172c1.1 1.101 2.564 1.707 4.121 1.707s3.021-.606 4.121-1.707l35.172-35.172c1.101-1.1 1.707-2.564 1.707-4.121s-.606-3.021-1.707-4.121zm-43.998 1.121h-12.881l14.312-14.312zm-.2 2-.071.711c-.016.159-.024.319-.024.479 0 2.652 2.158 4.81 4.81 4.81.16 0 .32-.008.479-.024l.711-.071v12.681l-18.586-18.586zm7.905 5.705 14.312-1.431-14.312 14.312zm-2.911-1.719c-1.646.161-3.089-1.154-3.089-2.796 0-.093.005-.186.014-.279l1.771-17.711 19.016 19.016zm1.911 18.428 19.414-19.414-12-12 6.586-6.586 5.856 5.856-1 3 6.874 6.874 3-1 5.856 5.856-30.586 30.586-20.586-20.586 4.586-4.586zm.707 16.465c-1.446 1.446-3.968 1.446-5.414 0l-15.172-15.172c-.723-.723-1.121-1.685-1.121-2.707s.398-1.984 1.121-2.707l1.879-1.879 20.586 20.586zm35.281-35.305-6.718-6.718-3 1-5.126-5.126 1-3-6.717-6.717c1.463-1.325 3.875-1.297 5.28.108l15.172 15.172c.723.723 1.121 1.685 1.121 2.707 0 .964-.365 1.867-1.012 2.574z"/></svg>