<svg id="Layer_3" enable-background="new 0 0 64 64" height="512" viewBox="0 0 64 64" width="512" xmlns="http://www.w3.org/2000/svg"><path d="m48 19c-1.654 0-3-1.346-3-3s1.346-3 3-3 3 1.346 3 3-1.346 3-3 3zm0-4c-.551 0-1 .449-1 1s.449 1 1 1 1-.449 1-1-.449-1-1-1z"/><path d="m55 16h-2c0-2.757-2.243-5-5-5v-2c3.86 0 7 3.14 7 7z"/><path d="m59 16h-2c0-4.962-4.038-9-9-9v-2c6.065 0 11 4.935 11 11z"/><path d="m63 16h-2c0-7.168-5.832-13-13-13v-2c8.271 0 15 6.729 15 15z"/><g fill="#f0bc5e"><path d="m22 19h-10.655c-5.682 4.389-9.345 11.265-9.345 19 0 .335.012.668.025 1h14.975c2.206 0 4-1.794 4-4s-1.794-4-4-4h-2c-1.103 0-2-.897-2-2s.897-2 2-2h7c2.206 0 4-1.794 4-4s-1.794-4-4-4z"/><path d="m50 38c0-5.227-1.676-10.059-4.512-14h-10.488c-2.206 0-4 1.794-4 4s1.794 4 4 4h4c1.103 0 2 .897 2 2s-.897 2-2 2h-8c-2.206 0-4 1.794-4 4s1.794 4 4 4h18.244c.493-1.918.756-3.928.756-6z"/><path d="m29 55h-10c-1.103 0-2-.897-2-2s.897-2 2-2c2.206 0 4-1.794 4-4s-1.794-4-4-4h-16.475c2.301 10.854 11.935 19 23.475 19 2.435 0 4.785-.366 7-1.04v-1.96c0-2.206-1.794-4-4-4z"/></g><path d="m26 63c-13.785 0-25-11.215-25-25s11.215-25 25-25 25 11.215 25 25-11.215 25-25 25zm0-48c-12.682 0-23 10.318-23 23s10.318 23 23 23 23-10.318 23-23-10.318-23-23-23z"/></svg>