<svg id="Layer_3" enable-background="new 0 0 64 64" height="512" viewBox="0 0 64 64" width="512" xmlns="http://www.w3.org/2000/svg"><path d="m36.544 1c-7.066 0-13.71 2.752-18.707 7.749l-15.715 15.715c-.724.724-1.122 1.685-1.122 2.707 0 1.737 1.17 3.19 2.757 3.657l-.404.404c-.873.873-1.353 2.034-1.353 3.268 0 1.217.493 2.408 1.354 3.268l2.879 2.879c.873.873 2.033 1.353 3.267 1.353s2.394-.48 3.268-1.354l9.879-9.879c.873-.872 1.353-2.033 1.353-3.267s-.48-2.395-1.354-3.268l-2.879-2.879c-.673-.673-1.518-1.106-2.435-1.272l5.575-5.575c3.552-3.55 8.273-5.506 13.294-5.506 2.022 0 4.013.319 5.915.949l.629-1.898c-2.106-.697-4.307-1.051-6.544-1.051-5.556 0-10.779 2.164-14.707 6.092l-.494.494-2.586-2.586.837-.837c4.619-4.619 10.761-7.163 17.293-7.163 13.485 0 24.456 10.971 24.456 24.456 0 6.532-2.544 12.673-7.163 17.293l-.837.837-2.586-2.586.494-.494c3.928-3.929 6.092-9.152 6.092-14.707 0-2.237-.354-4.439-1.051-6.544l-1.898.629c.63 1.901.949 3.891.949 5.915 0 5.021-1.956 9.742-5.506 13.293l-5.577 5.577c-.17-.915-.608-1.775-1.27-2.437l-2.879-2.879c-.874-.873-2.034-1.353-3.268-1.353s-2.394.48-3.268 1.354l-9.879 9.879c-.86.859-1.353 2.05-1.353 3.267s.493 2.408 1.354 3.268l2.879 2.879c.873.873 2.033 1.353 3.267 1.353s2.394-.48 3.268-1.354l.404-.404c.466 1.588 1.92 2.758 3.657 2.758 1.022 0 1.983-.398 2.707-1.121l15.715-15.716c4.997-4.997 7.749-11.641 7.749-18.707 0-14.588-11.868-26.456-26.456-26.456zm-22.544 14.414 2.586 2.586-1.586 1.586-2.586-2.586zm-9.171 13.586c-1.009 0-1.829-.82-1.829-1.829 0-.488.19-.947.536-1.293l7.464-7.464 2.586 2.586-.354.354-7.646 7.646zm16.403-3.354c.496.496.768 1.154.768 1.854s-.272 1.358-.768 1.854l-9.879 9.879c-.991.99-2.716.99-3.707 0l-2.172-2.172 13.586-13.586zm-4.732-3.646c.351 0 .692.069 1.007.2l-13.305 13.305c-.132-.317-.202-.659-.202-1.005 0-.69.28-1.365.768-1.854l1.646-1.646 8.232-8.232c.496-.496 1.154-.768 1.854-.768zm3.086-7-1.586 1.586-2.586-2.586 1.586-1.586zm32 32-1.586 1.586-2.586-2.586 1.586-1.586zm-3 3-1.586 1.586-2.586-2.586 1.586-1.586zm-23.818 6.354c-.488-.488-.768-1.164-.768-1.854s.28-1.366.768-1.854l9.879-9.879c.495-.495 1.153-.767 1.853-.767s1.358.272 1.854.768l2.172 2.172-13.587 13.585zm6.586 2.878c-.744.743-1.9.928-2.85.557l13.294-13.294c.132.317.202.659.202 1.005 0 .69-.28 1.366-.768 1.854l-8.232 8.232zm6.768 1.233c-.346.345-.805.535-1.293.535-1.009 0-1.829-.82-1.829-1.828v-.758l7.646-7.646.354-.354 2.586 2.586z"/><circle cx="37" cy="59" r="1"/><circle cx="5" cy="27" r="1"/><path d="m56 17.219-2.416-.603 1.281-2.134-5.347-5.347-2.134 1.281-.603-2.416h-7.562l-.603 2.416-2.134-1.281-5.347 5.347 1.281 2.134-2.416.603v7.562l2.416.603-1.281 2.134 5.347 5.347 2.134-1.281.603 2.416h7.562l.603-2.416 2.134 1.281 5.347-5.347-1.281-2.134 2.416-.603zm-13 9.781c-3.314 0-6-2.686-6-6s2.686-6 6-6 6 2.686 6 6-2.686 6-6 6z" fill="#f0bc5e"/><path d="m43 28c-3.86 0-7-3.14-7-7s3.14-7 7-7 7 3.14 7 7-3.14 7-7 7zm0-12c-2.757 0-5 2.243-5 5s2.243 5 5 5 5-2.243 5-5-2.243-5-5-5z"/></svg>