<svg id="Layer_3" enable-background="new 0 0 64 64" height="512" viewBox="0 0 64 64" width="512" xmlns="http://www.w3.org/2000/svg"><path d="m24 36.356-10.612-9.728c-1.518-1.39-2.388-3.369-2.388-5.427v-.837c0-4.061 3.304-7.364 7.364-7.364 1.967 0 3.816.766 5.207 2.157l.429.428.429-.429c1.39-1.39 3.24-2.156 5.207-2.156 4.06 0 7.364 3.303 7.364 7.364v.837c0 2.059-.87 4.037-2.388 5.428z" fill="#f0bc5e"/><path d="m17 38h12v4h-12z" fill="#f0bc5e"/><path d="m63 23.243c0-2.891-2.352-5.243-5.242-5.243-1.401 0-2.718.545-3.707 1.536l-9.228 9.228-3.823-5.097v-22.667h-25.414l-8.586 8.586v14.081l-6 8v31.333h46v-21.585l14.466-14.465c.989-.992 1.534-2.308 1.534-3.707zm-46.535 24.636c.185.185.381.353.576.523l-14.041 11.488v-25.476zm2.268 1.722c1.589.907 3.388 1.399 5.267 1.399.237 0 .473-.019.709-.035l-.888 6.214 8.65-1.236 2.046-2.046 8.682 7.103h-38.397zm7.974 1.52 3.172 3.172-3.7.528zm5.293 2.465-4.586-4.586 20.586-20.586 4.586 4.586zm17.414-26.586 1.586-1.586 4.586 4.586-1.586 1.586zm-6.02 3.192-2.394 2.394v-5.586zm-4.394 4.394-13.942 13.942-.058.408c-.332.039-.666.064-1 .064-2.312 0-4.486-.9-6.121-2.535l-8.879-8.879v-26.586h8v-8h22zm-28.586-25.586 4.586-4.586v4.586zm-3.414 26.586-3.68-3.68 3.68-4.906zm38 24.304-9.061-7.414 9.061-9.062zm15.051-34.354-3.051 3.05-4.586-4.586 3.051-3.051c.612-.612 1.426-.949 2.293-.949 1.788 0 3.242 1.455 3.242 3.243 0 .865-.337 1.68-.949 2.293z"/><path d="m23.694 27.787h2.329v2h-2.329z" transform="matrix(.737 -.676 .676 .737 -12.919 24.37)"/><path d="m31 20.364v.836c0 .381-.161.748-.442 1.006l-3.334 3.057 1.352 1.475 3.334-3.057c.693-.637 1.09-1.541 1.09-2.481v-.836c0-1.643-1.224-3.073-2.847-3.325l-.307 1.977c.658.102 1.154.682 1.154 1.348z"/><path d="m13 37h20v2h-20z"/><path d="m17 41h12v2h-12z"/><path d="m35 5h2v2h-2z"/><path d="m31 5h2v2h-2z"/><path d="m27 5h2v2h-2z"/></svg>