<svg id="Layer_3" enable-background="new 0 0 64 64" height="512" viewBox="0 0 64 64" width="512" xmlns="http://www.w3.org/2000/svg"><path d="m50 21c-.796 0-1.588-.139-2.354-.414l.674-1.883c.549.197 1.115.297 1.68.297 2.757 0 5-2.243 5-5s-2.243-5-5-5-5 2.243-5 5c0 .065.005.13.01.194l.006.104-1.996.115c-.013-.194-.02-.302-.02-.413 0-3.86 3.141-7 7-7s7 3.14 7 7-3.141 7-7 7z"/><path d="m53.781 27h-5.781v-2h4.219l.611-2.446 1.22-.503 2.159 1.296 3.139-3.138-1.296-2.16.465-1.142.534-.201 1.949-.487v-4.438l-2.452-.612-.496-1.22 1.296-2.158-3.139-3.138-2.159 1.296-1.22-.503-.611-2.446h-4.438l-.611 2.446-1.22.503-2.159-1.296-3.139 3.138 1.296 2.158-.464 1.142-.535.203-1.949.487v2.219h-2v-3.781l2.416-.603-1.281-2.135 5.345-5.347 2.136 1.282.603-2.416h7.562l.603 2.416 2.136-1.282 5.345 5.347-1.281 2.135 2.416.603v7.562l-2.415.603 1.28 2.135-5.345 5.347-2.136-1.282z"/><path d="m42 13h-34c-3.859 0-7 3.14-7 7v24c0 3.86 3.141 7 7 7h3v9.657c0 1.292 1.051 2.343 2.343 2.343.728 0 1.401-.33 1.85-.904l6.386-11.096h20.421c3.859 0 7-3.14 7-7v-24c0-3.86-3.141-7-7-7zm0 31h-34v-24h34z" fill="#f0bc5e"/><path d="m7 19v26h36v-26zm22.223 14.083c-1.066 1.218-2.605 1.917-4.223 1.917s-3.157-.699-4.223-1.917l-10.573-12.083h29.591zm-10.449.749-9.774 8.049v-19.219zm1.406 1.434c1.351 1.107 3.048 1.734 4.82 1.734s3.469-.627 4.82-1.734l9.392 7.734h-28.424zm11.046-1.434 9.774-11.17v19.219z"/><path d="m31 23h2v2h-2z"/><path d="m17 23h12v2h-12z"/></svg>