<svg id="Layer_3" enable-background="new 0 0 64 64" height="512" viewBox="0 0 64 64" width="512" xmlns="http://www.w3.org/2000/svg"><path d="m40.01.596-36.434 35.394 27.412 27.412 29.012-27.977v-14.839zm13.404 27.404 4.586-4.586v9.172zm1.672 4.5-2.086 2.086-19.586-19.586 5.586-5.586 15.086 15.086-3.5 3.5zm-48.662 3.51 33.566-32.606 17.596 17.596-2.086 2.086-16.5-16.5-8.414 8.414 22.414 22.414 3.5-3.5 1.073 1.073-26.56 25.612z"/><path d="m31 58.414-10.414-10.414 10.414-10.414 10.414 10.414zm-7.586-10.414 7.586 7.586 7.586-7.586-7.586-7.586z"/><path d="m20 46-10-10 18-18 22 22-6 6-12-12z" fill="#f0bc5e"/><path d="m38 13.444h2v31.113h-2z" transform="matrix(.707 -.707 .707 .707 -9.083 36.071)"/><path d="m35 16.444h2v31.113h-2z" transform="matrix(.707 -.707 .707 .707 -12.083 34.828)"/><path d="m32 19.444h2v31.113h-2z" transform="matrix(.707 -.707 .707 .707 -15.083 33.586)"/><path d="m23.066 24.902h2v14.327h-2z" transform="matrix(.707 -.707 .707 .707 -15.625 26.409)"/><path d="m20 27.929h2v14.142h-2z" transform="matrix(.707 -.707 .707 .707 -18.598 25.101)"/><path d="m17 30.929h2v14.142h-2z" transform="matrix(.707 -.707 .707 .707 -21.598 23.858)"/><path d="m14 33.929h2v14.142h-2z" transform="matrix(.707 -.707 .707 .707 -24.598 22.615)"/></svg>