<svg id="Layer_3" enable-background="new 0 0 64 64" height="512" viewBox="0 0 64 64" width="512" xmlns="http://www.w3.org/2000/svg"><path d="m21 23-1.169 1.169c-1.287 1.673-2.773 3.16-4.427 4.427l-.404.404 20 20 .404-.404c1.267-1.654 2.754-3.14 4.427-4.427l1.169-1.169z" fill="#f0bc5e"/><path d="m46.69 16.253-1.33 1.494c2.313 2.06 3.64 5.012 3.64 8.099 0 2.657-.976 5.219-2.747 7.212l1.494 1.328c2.098-2.36 3.253-5.392 3.253-8.54 0-3.658-1.57-7.154-4.31-9.593z"/><path d="m42.766 35.213h2.506v1.999h-2.506z" transform="matrix(.814 -.581 .581 .814 -12.849 32.331)"/><path d="m54 5c-2.757 0-5 2.243-5 5s2.243 5 5 5 5-2.243 5-5-2.243-5-5-5zm0 8c-1.654 0-3-1.346-3-3s1.346-3 3-3 3 1.346 3 3-1.346 3-3 3z"/><path d="m54 1c-4.963 0-9 4.037-9 9 0 .162.027.323.036.485-2.104-.946-4.429-1.485-6.882-1.485-5.429 0-10.553 2.638-13.707 7.055l-4.902 6.862c-3.21 4.492-7.904 7.651-13.252 8.968-.578-.561-1.365-.885-2.172-.885-1.721 0-3.121 1.4-3.121 3.121 0 .822.333 1.626.914 2.207l7.358 7.358c-.822 1.282-1.272 2.782-1.272 4.314 0 4.411 3.589 8 8 8 1.532 0 3.032-.45 4.314-1.272l7.358 7.358c.581.581 1.385.914 2.207.914 1.721 0 3.121-1.4 3.121-3.121 0-.807-.324-1.594-.885-2.172 1.318-5.348 4.477-10.042 8.968-13.252l6.862-4.902c4.417-3.155 7.055-8.279 7.055-13.707 0-2.453-.539-4.777-1.485-6.881.162.008.323.035.485.035 4.963 0 9-4.037 9-9s-4.037-9-9-9zm-35.843 26.571 18.272 18.272c-2.767 2.872-4.796 6.378-5.942 10.23l-22.56-22.56c3.852-1.146 7.358-3.175 10.23-5.942zm-2.157 26.429c-3.309 0-6-2.691-6-6 0-1.017.254-1.986.729-2.857l8.128 8.128c-.871.475-1.84.729-2.857.729zm13.879 7c-.295 0-.584-.119-.793-.328l-25.758-25.758c-.209-.209-.328-.498-.328-.793 0-.618.503-1.121 1.121-1.121.295 0 .584.119.793.328l25.758 25.758c.209.209.328.498.328.793 0 .618-.503 1.121-1.121 1.121zm16.904-23.074-6.862 4.902c-.714.51-1.389 1.063-2.04 1.639l-18.348-18.348c.576-.651 1.129-1.326 1.639-2.04l4.902-6.862c2.78-3.893 7.296-6.217 12.08-6.217 8.186 0 14.846 6.66 14.846 14.846 0 4.784-2.324 9.3-6.217 12.08zm7.217-20.926c-.562 0-1.121-.085-1.671-.221-1.316-2.05-3.059-3.793-5.109-5.109-.135-.549-.22-1.108-.22-1.67 0-3.859 3.141-7 7-7s7 3.141 7 7-3.141 7-7 7z"/><path d="m53 42c0 2.757-2.243 5-5 5v2c3.859 0 7-3.141 7-7z"/><path d="m48 51v2c6.065 0 11-4.935 11-11h-2c0 4.963-4.037 9-9 9z"/><path d="m17 16c0-2.757 2.243-5 5-5v-2c-3.859 0-7 3.141-7 7z"/><path d="m22 7v-2c-6.065 0-11 4.935-11 11h2c0-4.963 4.037-9 9-9z"/></svg>