<svg id="Layer_3" enable-background="new 0 0 64 64" height="512" viewBox="0 0 64 64" width="512" xmlns="http://www.w3.org/2000/svg"><path d="m45 44 4.379 4.379c.398.398.937.621 1.5.621 1.171 0 2.121-.95 2.121-2.121 0-.563-.223-1.102-.621-1.5l-4.379-4.379z" fill="#f0bc5e"/><path d="m51 38 4.379 4.379c.398.398.937.621 1.5.621 1.171 0 2.121-.95 2.121-2.121 0-.563-.223-1.102-.621-1.5l-4.379-4.379z" fill="#f0bc5e"/><path d="m53.586 27h2.828v2h-2.828z" transform="matrix(.707 -.707 .707 .707 -3.69 47.092)"/><path d="m38.722 35.5h15.556v2h-15.556z" transform="matrix(.707 -.707 .707 .707 -12.19 43.571)"/><path d="m39.098 2.684c-1.082-1.083-2.551-1.688-4.112-1.692-1.551.007-3.005.62-4.094 1.726l-28.343 28.804.003.003c-.957.95-1.552 2.265-1.552 3.717 0 1.4.545 2.717 1.535 3.707l24.465 24.465 6.707-6.707.707-.707 29-29zm-6.781 1.436c.712-.724 1.663-1.124 2.678-1.129h.017c.949 0 1.87.374 2.564 1.019l-27.576 27.576-.051-.051c-.857-.857-1.962-1.355-3.15-1.481zm-5.317 56.466-23.051-23.051c-.612-.612-.949-1.427-.949-2.293 0-1.788 1.454-3.242 3.242-3.242.866 0 1.681.337 2.293.949l20.051 20.051-1.586 1.586-21.293-21.293-1.414 1.414 22.707 22.707 3-3 1.586 1.586zm6-6-21.586-21.586 27.586-27.586 21.586 21.586z"/><path d="m29.338 43c-1.079 0-2.147-.356-3.009-1.003-2.111-1.584-3.329-4.018-3.329-6.568 0-1.082.211-2.136.627-3.133l.433-1.038c2.66-6.386 7.915-11.403 14.416-13.768.894-.325 1.831-.49 2.783-.49h.17c2.55 0 4.984 1.218 6.514 3.258.701.932 1.057 2.001 1.057 3.08 0 1.339-.521 2.598-1.469 3.545l-2.117 2.117c-1.289 1.289-3.539 1.289-4.828 0l-.232-.232c-.977-.975-2.73-.975-3.707 0l-1.879 1.879c-.488.488-.768 1.163-.768 1.853s.28 1.365.768 1.854l.232.232c.645.645 1 1.502 1 2.414s-.355 1.77-1 2.414l-2.117 2.117c-.947.948-2.206 1.469-3.545 1.469z" fill="#f0bc5e"/></svg>