<svg id="Layer_3" enable-background="new 0 0 64 64" height="512" viewBox="0 0 64 64" width="512" xmlns="http://www.w3.org/2000/svg"><path d="m40 41.414-14.414-14.414 6.414-6.414 14.414 14.414z" fill="#f0bc5e"/><path d="m13.636 37.808h12.728v18.385h-12.728z" fill="#f0bc5e" transform="matrix(.707 -.707 .707 .707 -27.376 27.908)"/><path d="m45 22.414v-2.979l14.019-13.083c.624-.583.981-1.407.981-2.261 0-1.704-1.387-3.091-3.176-3.091-.786 0-1.535.295-2.109.831l-14.11 13.169h-3.02l-2.747 2.747c-.862-.481-1.842-.747-2.838-.747-1.534 0-3.036.622-4.121 1.707l-2.879 2.879-3-3-6.414 6.414 3 3-12.879 12.879c-1.085 1.085-1.707 2.587-1.707 4.121s.622 3.036 1.707 4.121l12.172 12.172c1.085 1.085 2.587 1.707 4.121 1.707s3.036-.622 4.121-1.707l4.879-4.879 3 3 6.414-6.414-3-3 3.586-3.586 3 3 6.414-6.414-3-3 .879-.879c1.085-1.085 1.707-2.587 1.707-4.121 0-.996-.266-1.976-.747-2.839l4.161-4.161-4.414-4.414-4 4-2.586-2.586zm-6.586-5.414h2.98l14.686-13.707c.202-.189.467-.293.829-.293.602 0 1.091.489 1.091 1.091 0 .302-.126.593-.347.798l-14.653 13.676v3.021l-2 2-4.586-4.586zm-20 8 3.586-3.586 1.586 1.586-3.586 3.586zm19.172 28-3.586 3.586-1.586-1.586 3.586-3.586zm10-10-3.586 3.586-1.586-1.586 3.586-3.586zm-.707-5.293-22.172 22.172c-.713.713-1.699 1.121-2.707 1.121s-1.994-.408-2.707-1.121l-12.172-12.172c-.713-.713-1.121-1.699-1.121-2.707s.408-1.994 1.121-2.707l22.172-22.172c.713-.713 1.699-1.121 2.707-1.121s1.994.408 2.707 1.121l12.172 12.172c.713.713 1.121 1.699 1.121 2.707s-.408 1.994-1.121 2.707zm2.121-11.293 1.586 1.586-2.586 2.586-1.586-1.586z"/><path d="m27.586 41 6.414 6.414 4.414-4.414-6.414-6.414zm6.414 3.586-3.586-3.586 1.586-1.586 3.586 3.586z"/><path d="m30.414 35-6.414-6.414-4.414 4.414 6.414 6.414zm-6.414-3.586 3.586 3.586-1.586 1.586-3.586-3.586z"/><path d="m27.707 45.707-1.414-1.414-2.293 2.293-3.586-3.586 2.293-2.293-1.414-1.414-2.293 2.293-3.293-3.293-1.414 1.414 3.293 3.293-1.586 1.586-3.293-3.293-1.414 1.414 3.293 3.293-2.293 2.293 1.414 1.414 2.293-2.293 3.586 3.586-2.293 2.293 1.414 1.414 2.293-2.293 3.293 3.293 1.414-1.414-3.293-3.293 1.586-1.586 3.293 3.293 1.414-1.414-3.293-3.293zm-6.707 3.879-3.586-3.586 1.586-1.586 3.586 3.586z"/></svg>