<svg id="Layer_3" enable-background="new 0 0 64 64" height="512" viewBox="0 0 64 64" width="512" xmlns="http://www.w3.org/2000/svg"><path d="m39 19.586h2v2.828h-2z" transform="matrix(.707 -.707 .707 .707 -3.134 34.435)"/><path d="m50 57h-.519l-14.285-17.857 22.074-6.181-.539-1.926-24.437 6.842-6.173-6.173 6.842-24.435-1.926-.54-6.929 24.747-3.366 3.365c-1.123 1.125-1.742 2.619-1.742 4.208 0 .679.12 1.329.33 1.937l-12.811 16.013h-.519c-2.757 0-5 2.243-5 5v1h54v-1c0-2.757-2.243-5-5-5zm-3.081 0h-3.438l-12.474-15.593 1.515-1.515.582-.163zm-21.969-12c1.589 0 3.083-.619 4.207-1.743l.427-.427 2.594 3.242-4.178 2.437-4.177-2.436.868-1.085c.087.003.172.012.259.012zm14.536 10.209-9.501-5.542 3.455-2.015zm-16.926-7.557 3.454 2.015-9.5 5.541zm5.44 3.173 10.586 6.175h-21.173zm-5.843-14.568 2.843-2.843 5.586 5.586-2.844 2.843c-.745.746-1.737 1.157-2.792 1.157-2.178 0-3.95-1.772-3.95-3.95 0-1.055.411-2.047 1.157-2.793zm-1.768 6.607c.579.691 1.312 1.246 2.145 1.618l-10.015 12.518h-3.438zm-17.218 18.136c.413-1.164 1.525-2 2.829-2h44c1.304 0 2.416.836 2.829 2z"/><path d="m45.5 22.55h2v9.899h-2z" transform="matrix(.707 -.707 .707 .707 -5.826 40.935)"/><path d="m63 9c0-4.411-3.589-8-8-8h-.414l-5.079 5.079-9.703 1.941.393 1.961 9.475-1.895 2.693 2.693-5.153 5.475 1.456 1.371 5.112-5.431 2.135 2.135-1.895 9.475 1.961.393 1.941-9.703 5.078-5.08zm-6 3.586-5.586-5.586 3.987-3.986c2.99.197 5.388 2.596 5.586 5.585z"/><path d="m59 35.414-30.414-30.414 4.414-4.414 30.414 30.414z" fill="#f0bc5e"/></svg>