<svg id="Layer_3" enable-background="new 0 0 64 64" height="512" viewBox="0 0 64 64" width="512" xmlns="http://www.w3.org/2000/svg"><path d="m6.272 7.686h25.456v22.627h-25.456z" fill="#f0bc5e" transform="matrix(.707 -.707 .707 .707 -7.87 19)"/><path d="m32.272 33.686h25.456v22.627h-25.456z" fill="#f0bc5e" transform="matrix(.707 -.707 .707 .707 -18.64 45)"/><path d="m28 53.414-17.414-17.414 3.707-3.707 1.414 1.414-2.293 2.293 14.586 14.586 2.293-2.293 1.414 1.414z"/><path d="m49.707 31.707-1.414-1.414 2.293-2.293-14.586-14.586-2.293 2.293-1.414-1.414 3.707-3.707 17.414 17.414z"/><path d="m13 45.757h2v8.485h-2z" transform="matrix(.707 -.707 .707 .707 -31.255 24.544)"/><path d="m61.293 17.879-15.172-15.172c-1.1-1.101-2.564-1.707-4.121-1.707s-3.021.606-4.121 1.707l-8.586 8.586 1.414 1.414 7.293-7.293 5.856 5.856-1 3 6.874 6.874 3-1 5.856 5.856-7.293 7.293 1.414 1.414 8.586-8.586c1.101-1.1 1.707-2.564 1.707-4.121s-.606-3.021-1.707-4.121zm-1.305 6.695-6.718-6.718-3 1-5.126-5.126 1-3-6.717-6.717c1.463-1.325 3.875-1.297 5.28.108l15.172 15.172c.723.723 1.121 1.685 1.121 2.707 0 .964-.365 1.867-1.012 2.574z"/><path d="m28 56.586-20.586-20.586 5.293-5.293-1.414-1.414-8.586 8.586c-1.101 1.1-1.707 2.564-1.707 4.121 0 1.534.622 3.036 1.707 4.121l15.172 15.172c1.1 1.101 2.564 1.707 4.121 1.707s3.021-.606 4.121-1.707l8.586-8.586-1.414-1.414zm-3.293 3.293c-1.446 1.446-3.968 1.446-5.414 0l-15.172-15.172c-.712-.712-1.121-1.699-1.121-2.707 0-1.022.398-1.984 1.121-2.707l1.879-1.879 20.586 20.586z"/><path d="m22 25h-9v-9c0-2.757 2.243-5 5-5 2.444 0 4.484 1.763 4.916 4.084 2.321.432 4.084 2.472 4.084 4.916 0 2.757-2.243 5-5 5zm-7-2h7c1.654 0 3-1.346 3-3s-1.346-3-3-3h-1v-1c0-1.654-1.346-3-3-3s-3 1.346-3 3z"/><path d="m53 41c-1.042 0-1.96.535-2.498 1.344l-6.531-1.633c-.148-1.517-1.415-2.711-2.971-2.711-1.654 0-3 1.346-3 3 0 1.556 1.194 2.823 2.712 2.971l1.632 6.531c-.809.538-1.344 1.456-1.344 2.498 0 1.654 1.346 3 3 3s3-1.346 3-3c0-1.556-1.194-2.823-2.712-2.971l-1.632-6.531c.334-.222.621-.509.843-.843l6.531 1.633c.147 1.518 1.414 2.712 2.97 2.712 1.654 0 3-1.346 3-3s-1.346-3-3-3zm-13 0c0-.551.449-1 1-1s1 .449 1 1-.449 1-1 1-1-.449-1-1zm5 12c0 .551-.449 1-1 1s-1-.449-1-1 .449-1 1-1 1 .449 1 1zm8-8c-.551 0-1-.449-1-1s.449-1 1-1 1 .449 1 1-.449 1-1 1z"/></svg>