<svg id="Layer_3" enable-background="new 0 0 64 64" height="512" viewBox="0 0 64 64" width="512" xmlns="http://www.w3.org/2000/svg"><path d="m20 29v-3.459c-.905-.352-1.852-.541-2.83-.541h-.074c-3.87 0-7.346 2.695-7.985 6.512-.466 2.779.567 5.525 2.663 7.298l11.226 9.5 11.228-9.5c1.094-.926 1.913-2.134 2.367-3.493l.106-.317h-10.701c-3.314 0-6-2.686-6-6z" fill="#f0bc5e"/><path d="m41 30.31-11.227-9.5c-1.762-1.491-2.773-3.67-2.773-5.978 0-4.319 3.513-7.832 7.831-7.832h.339c2.092 0 4.059.814 5.538 2.294l.292.292.292-.292c1.479-1.48 3.446-2.294 5.538-2.294h.339c4.318 0 7.831 3.513 7.831 7.832 0 2.308-1.011 4.487-2.773 5.979z" fill="#f0bc5e"/><path d="m41.69 21.068h2.62v2h-2.62z" transform="matrix(.764 -.646 .646 .764 -4.086 32.973)"/><path d="m46.646 20.293-1.291-1.526 2.998-2.537c.411-.349.647-.858.647-1.399 0-1.01-.821-1.831-1.831-1.831h-.169v-2h.169c2.112 0 3.831 1.719 3.831 3.831 0 1.129-.494 2.196-1.355 2.925z"/><path d="m30 32h-4c-1.654 0-3-1.346-3-3v-8h2v8c0 .551.448 1 1 1h4z"/><path d="m14 17c-1.654 0-3-1.346-3-3s1.346-3 3-3 3 1.346 3 3-1.346 3-3 3zm0-4c-.552 0-1 .449-1 1s.448 1 1 1 1-.449 1-1-.448-1-1-1z"/><path d="m9 14h-2c0-3.86 3.141-7 7-7v2c-2.757 0-5 2.243-5 5z"/><path d="m5 14h-2c0-6.065 4.935-11 11-11v2c-4.963 0-9 4.038-9 9z"/><path d="m39 38h2v2h-2z"/><path d="m39 47c0 .551-.448 1-1 1h-4v2h4c1.654 0 3-1.346 3-3v-5h-2z"/><path d="m56 1h-30c-3.859 0-7 3.14-7 7v11h-11c-3.859 0-7 3.14-7 7v21c0 3.86 3.141 7 7 7h3v6.657c0 1.292 1.051 2.343 2.343 2.343.728 0 1.401-.33 1.85-.905l6.296-8.095h16.511c3.859 0 7-3.14 7-7v-7.799l3.808 4.896c.448.573 1.122.903 1.849.903 1.292 0 2.343-1.051 2.343-2.343v-6.657h3c3.859 0 7-3.14 7-7v-21c0-3.86-3.141-7-7-7zm-13 46c0 2.757-2.243 5-5 5h-17.489l-6.896 8.867c-.183.237-.615.086-.615-.21v-8.657h-5c-2.757 0-5-2.243-5-5v-21c0-2.757 2.243-5 5-5h11v8c0 3.86 3.141 7 7 7h16.511l.489.629zm18-18c0 2.757-2.243 5-5 5h-5v8.657c.001.295-.433.444-.614.211l-6.897-8.868h-17.489c-2.757 0-5-2.243-5-5v-21c0-2.757 2.243-5 5-5h30c2.757 0 5 2.243 5 5z"/><path d="m53 50c0-1.654-1.346-3-3-3s-3 1.346-3 3 1.346 3 3 3 3-1.346 3-3zm-4 0c0-.551.448-1 1-1s1 .449 1 1-.448 1-1 1-1-.449-1-1z"/><path d="m50 57c3.859 0 7-3.14 7-7h-2c0 2.757-2.243 5-5 5z"/><path d="m50 59v2c6.065 0 11-4.935 11-11h-2c0 4.962-4.037 9-9 9z"/><path d="m23 17h2v2h-2z"/><path d="m23 13h2v2h-2z"/><path d="m5 45h2v2h-2z"/><path d="m5 41h2v2h-2z"/><path d="m5 37h2v2h-2z"/></svg>