<svg id="Layer_3" enable-background="new 0 0 64 64" height="512" viewBox="0 0 64 64" width="512" xmlns="http://www.w3.org/2000/svg"><g fill="#f0bc5e"><path d="m49.949 31c-.322-5.846-3.415-10.95-8.007-14h-6.942c-1.654 0-3 1.346-3 3s1.346 3 3 3h3c.551 0 1 .448 1 1s-.449 1-1 1h-6c-1.654 0-3 1.346-3 3s1.346 3 3 3z"/><path d="m14 32c0 .338.032.667.051 1h9.949c1.654 0 3-1.346 3-3s-1.346-3-3-3h-1c-.551 0-1-.448-1-1s.449-1 1-1h2c1.654 0 3-1.346 3-3s-1.346-3-3-3h-5.429c-3.426 3.277-5.571 7.884-5.571 13z"/><path d="m41 35h-26.73c1.431 8.51 8.813 15 17.73 15 2.483 0 4.848-.503 7-1.412v-2.588c0-1.654-1.346-3-3-3h-6c-.551 0-1-.448-1-1s.449-1 1-1h11c1.654 0 3-1.346 3-3s-1.346-3-3-3z"/></g><path d="m59 49h-6v2h-5c-2.414 0-4.434 1.721-4.899 4h-34.101c-3.309 0-6-2.691-6-6s2.691-6 6-6h7.537c3.448 4.833 9.087 8 15.463 8 10.477 0 19-8.523 19-19 0-3.255-.825-6.319-2.273-9h6.273c4.411 0 8-3.589 8-8s-3.589-8-8-8h-34.101c-.465-2.279-2.485-4-4.899-4h-5v-2h-6v2h-4v2h4v6h-4v2h4v2h6v-2h5c2.414 0 4.434-1.721 4.899-4h34.101c3.309 0 6 2.691 6 6s-2.691 6-6 6h-7.537c-3.448-4.833-9.087-8-15.463-8-10.477 0-19 8.523-19 19 0 3.255.825 6.319 2.273 9h-6.273c-4.411 0-8 3.589-8 8s3.589 8 8 8h34.101c.465 2.279 2.484 4 4.899 4h5v2h6v-2h4v-2h-4v-6h4v-2h-4zm-50-36h-2v-10h2zm7-2h-5v-6h5c1.654 0 3 1.346 3 3s-1.346 3-3 3zm16 4c9.374 0 17 7.626 17 17s-7.626 17-17 17-17-7.626-17-17 7.626-17 17-17zm16 44c-1.654 0-3-1.346-3-3s1.346-3 3-3h5v6zm9 2h-2v-10h2z"/><path d="m49.949 46.374 1.561 1.252c.434-.541.849-1.105 1.234-1.678l-1.658-1.117c-.356.526-.738 1.046-1.137 1.543z"/><path d="m57 32c0-.617-.023-1.243-.069-1.862l-1.994.146c.042.567.063 1.139.063 1.723v.195l2 .014z"/><path d="m56.691 28.068c-.108-.682-.247-1.369-.412-2.042l-1.942.477c.152.619.28 1.251.379 1.878z"/><path d="m56.896 34.297-1.991-.184c-.059.638-.144 1.277-.254 1.899l1.97.348c.118-.676.211-1.371.275-2.063z"/><path d="m54.774 42.314-1.822-.824c-.259.574-.55 1.149-.863 1.709l1.745.977c.341-.61.658-1.236.94-1.862z"/><path d="m56.172 38.395-1.934-.51c-.161.611-.352 1.227-.566 1.829l1.884.672c.234-.657.441-1.326.616-1.991z"/><path d="m7 32c0 .617.023 1.243.069 1.862l1.994-.146c-.042-.567-.063-1.139-.063-1.723v-.195l-2-.014z"/><path d="m7.104 29.703 1.991.184c.059-.638.144-1.277.254-1.899l-1.969-.348c-.119.676-.212 1.371-.276 2.063z"/><path d="m7.309 35.932c.108.682.247 1.369.412 2.042l1.942-.477c-.152-.619-.28-1.251-.379-1.878z"/><path d="m9.226 21.686 1.822.824c.259-.574.55-1.149.863-1.709l-1.745-.977c-.341.61-.658 1.236-.94 1.862z"/><path d="m14.051 17.626-1.561-1.252c-.434.541-.849 1.105-1.234 1.678l1.658 1.117c.356-.526.738-1.046 1.137-1.543z"/><path d="m7.828 25.605 1.934.51c.161-.611.352-1.227.566-1.829l-1.884-.672c-.234.657-.441 1.326-.616 1.991z"/></svg>