<svg id="Layer_3" enable-background="new 0 0 64 64" height="512" viewBox="0 0 64 64" width="512" xmlns="http://www.w3.org/2000/svg"><g fill="#f0bc5e"><path d="m36 18h24v4h-24z"/><path d="m36 8h24v4h-24z"/><circle cx="19" cy="45" r="14"/></g><path d="m33 1v8h30v-8zm28 6h-26v-4h26z"/><path d="m33 14h-10.142c-.447-1.72-2-3-3.858-3-2.206 0-4 1.794-4 4 0 1.858 1.28 3.411 3 3.858v8.193c-9.459.523-17 8.362-17 17.949 0 9.925 8.075 18 18 18 9.588 0 17.426-7.541 17.949-17h7.193c.447 1.721 2 3 3.858 3 2.206 0 4-1.794 4-4 0-1.859-1.28-3.411-3-3.858v-12.142h14v-8h-30v8h14v12.142c-1.399.364-2.494 1.459-2.858 2.858h-7.193c-.505-9.126-7.823-16.444-16.949-16.949v-8.193c1.399-.364 2.494-1.459 2.858-2.858h10.142v3h30v-8h-30zm2 9h26v4h-26zm13 20c1.103 0 2 .897 2 2s-.897 2-2 2-2-.897-2-2 .897-2 2-2zm-30-12.9v5.88c-1.678-.042-3.158-.183-4.438-.386 1.448-2.525 3.199-4.374 4.438-5.494zm0 7.88v6.02h-6.949c.134-2.459.733-4.642 1.571-6.533 1.521.273 3.311.464 5.378.513zm-8.951 6.02h-5.998c.202-3.237 1.365-6.209 3.213-8.645.823.466 2.237 1.128 4.337 1.674-.842 2.024-1.427 4.352-1.552 6.971zm0 2c.125 2.619.71 4.947 1.552 6.971-2.101.546-3.514 1.208-4.337 1.674-1.849-2.436-3.012-5.408-3.213-8.645zm2.002 0h6.949v6.02c-2.067.049-3.857.24-5.378.513-.839-1.891-1.438-4.074-1.571-6.533zm6.949 8.02v5.88c-1.239-1.12-2.99-2.969-4.438-5.494 1.28-.204 2.76-.344 4.438-.386zm2 5.88v-5.88c1.678.042 3.158.183 4.438.386-1.448 2.525-3.199 4.374-4.438 5.494zm0-7.88v-6.02h6.949c-.134 2.459-.733 4.642-1.571 6.533-1.521-.273-3.311-.464-5.378-.513zm8.951-6.02h5.998c-.202 3.236-1.364 6.209-3.213 8.645-.823-.466-2.237-1.128-4.337-1.674.842-2.024 1.427-4.352 1.552-6.971zm0-2c-.125-2.619-.71-4.947-1.552-6.971 2.101-.546 3.514-1.208 4.337-1.674 1.849 2.435 3.012 5.408 3.213 8.645zm-2.002 0h-6.949v-6.02c2.067-.049 3.857-.24 5.378-.513.839 1.891 1.438 4.074 1.571 6.533zm-6.949-8.02v-5.88c1.239 1.12 2.99 2.969 4.438 5.494-1.28.204-2.76.344-4.438.386zm-4.103-6.672c-1.377 1.341-3.054 3.309-4.418 5.871-1.831-.446-3.102-.982-3.882-1.383 2.213-2.252 5.083-3.853 8.3-4.488zm-8.3 26.896c.78-.401 2.05-.937 3.881-1.383 1.364 2.562 3.041 4.53 4.418 5.871-3.216-.635-6.086-2.236-8.299-4.488zm14.507 4.488c1.377-1.341 3.054-3.309 4.418-5.871 1.831.446 3.102.982 3.881 1.383-2.213 2.252-5.083 3.853-8.299 4.488zm8.299-26.896c-.78.401-2.05.937-3.882 1.383-1.364-2.562-3.041-4.53-4.418-5.871 3.217.635 6.087 2.236 8.3 4.488zm-11.403-16.796c-1.103 0-2-.897-2-2s.897-2 2-2 2 .897 2 2-.897 2-2 2zm16-4h26v4h-26z"/><path d="m51 31h2v2h-2z"/><path d="m51 35h2v2h-2z"/><path d="m51 39h2v2h-2z"/><path d="m29 9h2v2h-2z"/><path d="m25 9h2v2h-2z"/><path d="m21 9h2v2h-2z"/></svg>