<svg id="Layer_3" enable-background="new 0 0 64 64" height="512" viewBox="0 0 64 64" width="512" xmlns="http://www.w3.org/2000/svg"><path d="m27 55c-6.617 0-12-5.383-12-12s5.383-12 12-12 12 5.383 12 12-5.383 12-12 12zm0-17c-2.757 0-5 2.243-5 5s2.243 5 5 5 5-2.243 5-5-2.243-5-5-5z" fill="#f0bc5e"/><path d="m27 49c-3.309 0-6-2.691-6-6s2.691-6 6-6 6 2.691 6 6-2.691 6-6 6zm0-10c-2.206 0-4 1.794-4 4s1.794 4 4 4 4-1.794 4-4-1.794-4-4-4z"/><circle cx="27" cy="34" r="1"/><circle cx="20.636" cy="36.636" r="1"/><circle cx="18" cy="43" r="1"/><circle cx="20.636" cy="49.364" r="1"/><circle cx="27" cy="52" r="1"/><circle cx="33.364" cy="49.364" r="1"/><circle cx="36" cy="43" r="1"/><circle cx="33.364" cy="36.636" r="1"/><path d="m9 59h-1c-1.654 0-3-1.346-3-3v-1h2v1c0 .551.449 1 1 1h1z"/><path d="m56.375 30.028c-.688.858-1.89 1.191-2.915.813l-1.084-.399c-1.337-.492-2.653-1.078-3.91-1.741l-.933 1.769c1.334.704 2.731 1.326 4.151 1.849l1.084.399c.509.187 1.042.282 1.586.282 1.4 0 2.706-.627 3.583-1.722l.522-.653-1.562-1.249z"/><path d="m61.189 26.143-5.519-4.14c-.862-.647-1.93-1.003-3.008-1.003-1.339 0-2.598.521-3.544 1.468l-.764.764c-.99.99-2.717.99-3.707 0l-3.879-3.879c-.496-.495-.768-1.153-.768-1.853s.272-1.358.768-1.854l.764-.764c.947-.946 1.468-2.205 1.468-3.544 0-1.078-.356-2.146-1.003-3.008l-4.139-5.519c-.85-1.134-2.204-1.811-3.621-1.811-1.024 0-2.028.352-2.827.992l-1.187.949c-2.048 1.639-3.223 4.083-3.223 6.706v.122c0 .925.148 1.839.44 2.716 2.039 6.117 5.53 11.49 10.096 15.745l-.257.77h-20.558l-1.316-3.949c-.409-1.227-1.553-2.051-2.846-2.051h-2.559c-1.654 0-3 1.346-3 3v13h-1c-2.757 0-5 2.243-5 5v12c0 3.86 3.14 7 7 7h38c3.519 0 6.432-2.613 6.92-6h3.08c1.654 0 3-1.346 3-3v-18.368c.77-.497 1.469-1.117 2.059-1.855l.949-1.187c.64-.799.992-1.803.992-2.827 0-1.417-.677-2.771-1.811-3.62zm-52.189-.143c0-.551.449-1 1-1h2.559c.431 0 .812.275.949.684l1.771 5.316h23.441l.445-1.335c1.804 1.496 3.758 2.821 5.834 3.969v16.366c0 2.757-2.243 5-5 5h-25.999c-2.757 0-5-2.243-5-5zm42 30c0 2.757-2.243 5-5 5h-38c-2.757 0-5-2.243-5-5v-12c0-1.654 1.346-3 3-3h1v9c0 3.86 3.14 7 7 7h26c3.86 0 7-3.14 7-7v-9h1c1.654 0 3 1.346 3 3zm6-2c0 .551-.449 1-1 1h-3v-11c0-2.757-2.243-5-5-5h-1v-4.337c1.074.514 2.171.992 3.303 1.409l1.082.398c.953.352 1.952.53 2.968.53.914 0 1.803-.151 2.647-.424zm3.447-22.659-.949 1.187c-1.258 1.571-3.133 2.472-5.145 2.472-.78 0-1.546-.137-2.277-.406l-1.082-.398c-10.293-3.792-18.187-11.937-21.656-22.344-.224-.673-.338-1.373-.338-2.083v-.122c0-2.012.901-3.887 2.472-5.145l1.187-.949c.446-.357 1.007-.553 1.578-.553.791 0 1.546.377 2.021 1.011l4.139 5.519c.389.518.603 1.16.603 1.808 0 .793-.322 1.569-.882 2.13l-.764.764c-.874.873-1.354 2.034-1.354 3.268s.48 2.395 1.354 3.268l3.879 3.879c.872.873 2.033 1.353 3.267 1.353s2.395-.48 3.268-1.354l.764-.764c1.018-1.019 2.786-1.145 3.938-.28l5.52 4.14c.633.474 1.01 1.229 1.01 2.021 0 .571-.196 1.132-.553 1.578z"/><path d="m27 46c-1.654 0-3-1.346-3-3s1.346-3 3-3 3 1.346 3 3-1.346 3-3 3zm0-4c-.551 0-1 .449-1 1s.449 1 1 1 1-.449 1-1-.449-1-1-1z"/></svg>