<svg id="Layer_3" enable-background="new 0 0 64 64" height="512" viewBox="0 0 64 64" width="512" xmlns="http://www.w3.org/2000/svg"><path d="m36 10.586-9.707 9.707 7.707 7.707-15.72 15.703 9.72 9.711 25.414-25.414z" fill="#f0bc5e"/><path d="m61.293 17.879-15.172-15.172c-1.1-1.101-2.564-1.707-4.121-1.707s-3.021.606-4.121 1.707l-13.879 13.879-7-7-16.414 16.414 7 7-4.879 4.879c-1.085 1.085-1.707 2.587-1.707 4.121s.622 3.036 1.707 4.121l15.172 15.172c1.1 1.101 2.564 1.707 4.121 1.707s3.021-.606 4.121-1.707l35.172-35.172c1.085-1.085 1.707-2.587 1.707-4.121s-.622-3.036-1.707-4.121zm-44.293-5.465 15.586 15.586-13.586 13.586-15.586-15.586zm2 32 16.414-16.414-10-10 12.586-12.586 5.856 5.856-1 3 6.874 6.874 3-1 5.856 5.856-30.586 30.586-20.586-20.586 1.586-1.586zm5.707 15.465c-1.446 1.445-3.968 1.445-5.414 0l-15.172-15.172c-.712-.713-1.121-1.699-1.121-2.707s.409-1.994 1.121-2.707l1.879-1.879 20.586 20.586zm35.281-35.305-6.718-6.718-3 1-5.126-5.126 1-3-6.717-6.716c1.463-1.324 3.875-1.296 5.28.108l15.172 15.172c.712.712 1.121 1.698 1.121 2.706 0 .95-.374 1.873-1.012 2.574z"/><path d="m13 45.757h2v8.485h-2z" transform="matrix(.707 -.707 .707 .707 -31.255 24.544)"/><path d="m40.414 21-4.414-4.414-4.414 4.414 4.414 4.414zm-4.414-1.586 1.586 1.586-1.586 1.586-1.586-1.586z"/><path d="m43 32.414 4.414-4.414-4.414-4.414-4.414 4.414zm1.586-4.414-1.586 1.586-1.586-1.586 1.586-1.586z"/><path d="m41.414 34-4.414-4.414-4.414 4.414 4.414 4.414zm-4.414-1.586 1.586 1.586-1.586 1.586-1.586-1.586z"/><path d="m35.414 40-4.414-4.414-4.414 4.414 4.414 4.414zm-4.414-1.586 1.586 1.586-1.586 1.586-1.586-1.586z"/><path d="m18.437 17.148-10.288 10.29 15.432 5.144zm-.874 3.704 2.856 8.567-8.568-2.856z"/></svg>