<svg id="Layer_3" enable-background="new 0 0 64 64" height="512" viewBox="0 0 64 64" width="512" xmlns="http://www.w3.org/2000/svg"><path d="m13.343 63c-1.292 0-2.343-1.051-2.343-2.343v-9.657h-3c-3.859 0-7-3.141-7-7v-16c0-3.859 3.141-7 7-7h18.11v2h-18.11c-2.757 0-5 2.243-5 5v16c0 2.757 2.243 5 5 5h5v11.657c.001.28.385.438.583.245l6.838-11.902h21.579c2.757 0 5-2.243 5-5v-6.451h2v6.451c0 3.859-3.141 7-7 7h-20.421l-6.387 11.096c-.448.575-1.122.904-1.849.904z"/><path d="m45 23h-2v-5.333l2.601-3.467c.256-.345.399-.77.399-1.2 0-1.103-.897-2-2-2s-2 .897-2 2v1h-2v-1c0-2.206 1.794-4 4-4s4 1.794 4 4c0 .858-.284 1.71-.799 2.398l-2.201 2.935z"/><path d="m44 31c-1.654 0-3-1.346-3-3s1.346-3 3-3 3 1.346 3 3-1.346 3-3 3zm0-4c-.552 0-1 .448-1 1s.448 1 1 1 1-.448 1-1-.448-1-1-1z"/><path d="m16 39c-1.654 0-3-1.346-3-3s1.346-3 3-3 3 1.346 3 3-1.346 3-3 3zm0-4c-.552 0-1 .448-1 1s.448 1 1 1 1-.448 1-1-.448-1-1-1z"/><path d="m24 39c-1.654 0-3-1.346-3-3s1.346-3 3-3 3 1.346 3 3-1.346 3-3 3zm0-4c-.552 0-1 .448-1 1s.448 1 1 1 1-.448 1-1-.448-1-1-1z"/><path d="m8 39c-1.654 0-3-1.346-3-3s1.346-3 3-3 3 1.346 3 3-1.346 3-3 3zm0-4c-.552 0-1 .448-1 1s.448 1 1 1 1-.448 1-1-.448-1-1-1z"/><path d="m57.426 6.556c-4.041-4.035-9.642-6.026-15.358-5.46-8.988.889-16.3 8.36-17.008 17.38-.455 5.811 1.706 11.382 5.94 15.356v6.763c0 1.326 1.079 2.405 2.405 2.405.647 0 1.277-.267 1.727-.731l3.824-3.946c2.168.597 4.42.801 6.69.607 8.968-.758 16.388-8.077 17.26-17.024.559-5.719-1.439-11.314-5.48-15.35zm-13.426 27.444c-7.732 0-14-6.268-14-14s6.268-14 14-14 14 6.268 14 14-6.268 14-14 14z" fill="#f0bc5e"/><path d="m44 35c-8.271 0-15-6.729-15-15s6.729-15 15-15 15 6.729 15 15-6.729 15-15 15zm0-28c-7.168 0-13 5.832-13 13s5.832 13 13 13 13-5.832 13-13-5.832-13-13-13z"/><path d="m50.602 28.8-1.202-1.6c2.288-1.718 3.6-4.343 3.6-7.2h2c0 3.493-1.604 6.7-4.398 8.8z"/><path d="m52.819 18.198c-.124-.615-.315-1.22-.567-1.798l1.832-.801c.31.708.544 1.448.696 2.202z"/><path d="m42 47h-5v-2h5c.552 0 1-.448 1-1v-3h2v3c0 1.654-1.346 3-3 3z"/><path d="m33 45h2v2h-2z"/><path d="m29 45h2v2h-2z"/></svg>