<svg id="Layer_3" enable-background="new 0 0 64 64" height="512" viewBox="0 0 64 64" width="512" xmlns="http://www.w3.org/2000/svg"><g fill="#f0bc5e"><path d="m6 49-4 9 4 4 9-4z"/><path d="m8.636 2.979h12.728v24.042h-12.728z" transform="matrix(.707 -.707 .707 .707 -6.213 15)"/><path d="m42.636 36.979h12.728v24.042h-12.728z" transform="matrix(.707 -.707 .707 .707 -20.297 49)"/></g><path d="m24.207 22.793-4.793-4.793 3.793-3.793-1.414-1.414-3.793 3.793-4.586-4.586 3.793-3.793-1.414-1.414-3.793 3.793-4.793-4.793-1.414 1.414 4.793 4.793-3.793 3.793 1.414 1.414 3.793-3.793 4.586 4.586-3.793 3.793 1.414 1.414 3.793-3.793 4.793 4.793z"/><path d="m58.207 56.793-4.793-4.793 3.793-3.793-1.414-1.414-3.793 3.793-4.586-4.586 3.793-3.793-1.414-1.414-3.793 3.793-4.793-4.793-1.414 1.414 4.793 4.793-3.793 3.793 1.414 1.414 3.793-3.793 4.586 4.586-3.793 3.793 1.414 1.414 3.793-3.793 4.793 4.793z"/><path d="m30 38c-2.206 0-4-1.794-4-4s1.794-4 4-4 4 1.794 4 4-1.794 4-4 4z" fill="#f0bc5e"/><path d="m13.185 42.069-.354-.042-4.917 3.129 1.074 1.688 4.305-2.739c1.794.293 3.439 1.194 4.665 2.562l1.49-1.334c-1.63-1.818-3.853-2.978-6.263-3.264z"/><path d="m56.241.826-5.803 2.321-9.852 9.853 1.5 1.5-2.586 2.586-2.5-2.5-8.5 8.5-2.293-2.293-1.414 1.414 2.293 2.293-2.586 2.586-2.293-2.293-1.414 1.414 2.293 2.293-4.5 4.5 2.895 2.895-2.915 3.748c-1.959-1.045-4.194-1.643-6.566-1.643h-.277l-11.335 6.802 18.811 18.811 6.801-11.336v-.277c0-2.372-.598-4.607-1.643-6.567l3.748-2.915 2.895 2.896 4.5-4.5 2.293 2.293 1.414-1.414-2.293-2.293 2.586-2.586 2.293 2.293 1.414-1.414-2.293-2.293 8.5-8.5-2.5-2.5 2.586-2.586 1.5 1.5 9.853-9.853 2.321-5.803zm-37.439 59.562-15.19-15.19 8.659-5.195c6.401.144 11.582 5.324 11.726 11.726zm4.476-16.649c-.847-1.153-1.864-2.17-3.017-3.017l2.646-3.402 3.773 3.773zm7.722-1.153-9.586-9.586 15.586-15.586 9.586 9.586zm14.5-19.5-4.586-4.586 2.586-2.586 4.586 4.586zm13.647-10.648-8.147 8.148-7.586-7.586 7.586-7.586 5.293 5.293 1.414-1.414-4.928-4.928 2.979-1.192 5.067 5.067z"/><path d="m33.586 28h2.828v2h-2.828z" transform="matrix(.707 -.707 .707 .707 -10.255 33.243)"/><path d="m37.586 24h2.828v2h-2.828z" transform="matrix(.707 -.707 .707 .707 -6.255 34.9)"/></svg>