<svg id="Layer_3" enable-background="new 0 0 64 64" height="512" viewBox="0 0 64 64" width="512" xmlns="http://www.w3.org/2000/svg"><path d="m61.293 17.879-15.172-15.172c-1.1-1.101-2.564-1.707-4.121-1.707s-3.021.606-4.121 1.707l-35.172 35.172c-1.101 1.1-1.707 2.564-1.707 4.121s.606 3.021 1.707 4.121l15.172 15.172c1.1 1.101 2.564 1.707 4.121 1.707s3.021-.606 4.121-1.707l35.172-35.172c1.101-1.1 1.707-2.564 1.707-4.121s-.606-3.021-1.707-4.121zm-11.563 3.265 3-1 5.856 5.856-30.586 30.586-20.586-20.586 30.586-30.586 5.856 5.856-1 3zm-25.023 38.735c-1.446 1.446-3.968 1.446-5.414 0l-15.172-15.172c-.723-.723-1.121-1.685-1.121-2.707s.398-1.984 1.121-2.707l1.879-1.879 20.586 20.586zm35.281-35.305-6.718-6.718-3 1-5.126-5.126 1-3-6.718-6.718c.707-.647 1.61-1.012 2.574-1.012 1.022 0 1.984.398 2.707 1.121l15.172 15.172c.723.723 1.121 1.685 1.121 2.707 0 .964-.365 1.867-1.012 2.574z"/><path d="m13 45.757h2v8.485h-2z" transform="matrix(.707 -.707 .707 .707 -31.255 24.544)"/><path d="m28 53.414-17.414-17.414 25.414-25.414 17.414 17.414z" fill="#f0bc5e"/><path d="m44 32.414-12.414-12.414 4.414-4.414 12.414 12.414zm-9.586-12.414 9.586 9.586 1.586-1.586-9.586-9.586z"/><path d="m25 25.686h2v24.627h-2z" transform="matrix(.707 -.707 .707 .707 -19.255 29.515)"/><path d="m27.192 46.606-1.414-1.414 1.414-1.414 1.414 1.414zm-2.828-2.828-1.415-1.415 1.414-1.414 1.415 1.415zm-2.828-2.828-1.414-1.414 1.414-1.414 1.414 1.414zm-2.829-2.829-1.414-1.414 1.414-1.414 1.414 1.414z"/><path d="m45 50v-2c1.654 0 3-1.346 3-3h2c0 2.757-2.243 5-5 5z"/><path d="m45 54v-2c3.86 0 7-3.14 7-7h2c0 4.962-4.038 9-9 9z"/><path d="m16 19h-2c0-2.757 2.243-5 5-5v2c-1.654 0-3 1.346-3 3z"/><path d="m12 19h-2c0-4.962 4.038-9 9-9v2c-3.86 0-7 3.14-7 7z"/></svg>