<svg id="Layer_3" enable-background="new 0 0 64 64" height="512" viewBox="0 0 64 64" width="512" xmlns="http://www.w3.org/2000/svg"><path d="m57 16.219-2.416-.603 1.281-2.134-5.345-5.348-2.136 1.281-.603-2.415h-7.562l-.603 2.416-2.136-1.282-5.346 5.347 1.281 2.134-2.415.604v6.781l.011.056c1.263-.138 2.478-.008 3.601.332l-2.805 2.805 6 6 2.805-2.805c.339 1.12.469 2.331.333 3.591l6.836.021.603-2.416 2.136 1.281 5.346-5.347-1.28-2.135 2.414-.602zm-13 9.781c-3.314 0-6-2.686-6-6s2.686-6 6-6 6 2.686 6 6-2.686 6-6 6z" fill="#f0bc5e"/><path d="m44 27c-3.859 0-7-3.14-7-7s3.141-7 7-7 7 3.14 7 7-3.141 7-7 7zm0-12c-2.757 0-5 2.243-5 5s2.243 5 5 5 5-2.243 5-5-2.243-5-5-5z"/><path d="m44 1c-10.477 0-19 8.523-19 19v.271c0 1.406.166 2.807.475 4.178-1.854 1.607-3.124 3.877-3.411 6.421-.073.656-.083 1.321-.027 1.978.082.968-.269 1.884-.964 2.514l-17.925 16.247c-1.365 1.238-2.148 3.005-2.148 4.848 0 3.608 2.936 6.543 6.543 6.543 1.844 0 3.61-.783 4.849-2.149l16.247-17.923c.63-.695 1.546-1.051 2.514-.964.65.055 1.316.047 1.976-.028.869-.098 1.705-.311 2.495-.621l2.075 2.929c-2.928 1.288-4.699 3.417-4.699 5.756 0 3.925 4.832 7 11 7s11-3.075 11-7c0-2.339-1.77-4.468-4.697-5.755l9.202-12.991c2.286-3.229 3.495-7.027 3.495-10.983v-.271c0-10.477-8.523-19-19-19zm-11.095 38.949c-.529.06-1.061.067-1.583.022-1.587-.13-3.112.452-4.166 1.614l-16.247 17.923c-.859.948-2.086 1.492-3.366 1.492-2.505 0-4.543-2.038-4.543-4.543 0-1.28.544-2.506 1.492-3.366l17.924-16.248c1.161-1.053 1.749-2.571 1.612-4.165-.044-.526-.036-1.059.023-1.585.413-3.667 3.374-6.628 7.042-7.042.303-.034.607-.051.909-.051.188 0 .377.007.564.02l-4.652 4.651 1.236 6.178 6.179 1.236 4.651-4.651c.035.49.024.983-.031 1.477-.416 3.666-3.379 6.626-7.044 7.038zm20.095 10.051c0 2.71-4.121 5-9 5s-9-2.29-9-5c0-1.585 1.509-3.134 3.887-4.076l2.719 3.838c.548.775 1.444 1.238 2.394 1.238s1.846-.463 2.395-1.238l2.719-3.838c2.377.942 3.886 2.491 3.886 4.076zm8-29.729c0 3.54-1.081 6.938-3.128 9.826l-13.11 18.509c-.348.493-1.176.494-1.523 0l-5.824-8.223c2.449-1.595 4.179-4.225 4.522-7.246.155-1.364.031-2.723-.366-4.038l-.485-1.599-6.415 6.414-3.821-.764-.764-3.822 6.414-6.414-1.598-.484c-1.312-.398-2.669-.521-4.033-.367-1.29.145-2.506.55-3.605 1.149-.171-.97-.264-1.954-.264-2.941v-.271c0-9.374 7.626-17 17-17s17 7.626 17 17z"/><path d="m8 53c-1.654 0-3 1.346-3 3s1.346 3 3 3 3-1.346 3-3-1.346-3-3-3zm0 4c-.552 0-1-.449-1-1s.448-1 1-1 1 .449 1 1-.448 1-1 1z"/><path d="m10.343 47h11.314v2h-11.314z" transform="matrix(.707 -.707 .707 .707 -29.255 25.373)"/><path d="m21.586 40h2.828v2h-2.828z" transform="matrix(.707 -.707 .707 .707 -22.255 28.272)"/><path d="m41.859 40h9.615v2h-9.615z" transform="matrix(.555 -.832 .832 .555 -13.334 57.086)"/><path d="m50.132 33h2.404v2h-2.404z" transform="matrix(.555 -.832 .832 .555 -5.431 57.852)"/></svg>