<svg id="Layer_3" enable-background="new 0 0 64 64" height="512" viewBox="0 0 64 64" width="512" xmlns="http://www.w3.org/2000/svg"><path d="m13 29h2v2h-2z"/><g fill="#f0bc5e"><path d="m34 16h3c1.654 0 3-1.346 3-3s-1.346-3-3-3h-6.403c-1.636 2.612-2.597 5.691-2.597 9 0 1.74.264 3.419.75 5h8.25c1.654 0 3-1.346 3-3s-1.346-3-3-3h-3c-.552 0-1-.449-1-1s.448-1 1-1z"/><path d="m54.634 5h-6.634c-1.654 0-3 1.346-3 3s1.346 3 3 3h4c.552 0 1 .449 1 1s-.448 1-1 1h-7c-1.654 0-3 1.346-3 3s1.346 3 3 3h17c0-5.81-2.919-10.934-7.366-14z"/><path d="m45 36c8.711 0 15.881-6.555 16.872-15h-11.872c-1.654 0-3 1.346-3 3s1.346 3 3 3h2c.552 0 1 .449 1 1s-.448 1-1 1h-10c-1.654 0-3 1.346-3 3v2.89c1.868.706 3.885 1.11 6 1.11z"/></g><path d="m5 29h2v2h-2z"/><path d="m9 29h2v2h-2z"/><path d="m63 19c0-9.925-8.075-18-18-18s-18 8.075-18 18c0 2.106.383 4.12 1.05 6h-27.05v38h48v-26.464c8.004-1.825 14-8.987 14-17.536zm-34.101 8c1.163 2.33 2.804 4.378 4.812 6h-30.711v-6zm18.101 34h-44v-26h33.792c2.465 1.27 5.251 2 8.208 2 .677 0 1.342-.045 2-.118zm-2-26c-8.822 0-16-7.178-16-16s7.178-16 16-16 16 7.178 16 16-7.178 16-16 16z"/><path d="m5 51h20v-14h-20zm2-12h16v10h-16z"/><path d="m5 54h20v5h-20z" fill="#f0bc5e"/><path d="m5 53h20v2h-20z"/><path d="m23 57h2v2h-2z"/><path d="m5 57h16v2h-16z"/><path d="m27 38h12v4h6v5h-18z" fill="#f0bc5e"/><path d="m27 37h12v2h-12z"/><path d="m27 41h18v2h-18z"/><path d="m27 45h14v2h-14z"/><path d="m43 45h2v2h-2z"/><path d="m45 59h-18v-10h18zm-16-2h14v-6h-14z"/></svg>