<svg id="svg" version="1.1" xmlns="http://www.w3.org/2000/svg" xmlns:xlink="http://www.w3.org/1999/xlink" width="400" height="174.14965986394557" viewBox="0, 0, 400,174.14965986394557"><g id="svgg"><path id="path0" d="M35.312 0.125 C 35.043 0.166,34.780 0.311,34.727 0.448 C 34.675 0.585,34.444 0.697,34.215 0.697 C 33.960 0.697,33.798 0.799,33.798 0.958 C 33.798 1.121,33.633 1.220,33.362 1.220 C 33.123 1.220,32.927 1.298,32.927 1.394 C 32.927 1.490,32.809 1.568,32.666 1.568 C 32.522 1.568,32.404 1.686,32.404 1.829 C 32.404 1.973,32.305 2.091,32.185 2.091 C 32.064 2.091,31.754 2.287,31.495 2.526 C 31.237 2.766,30.944 2.962,30.844 2.962 C 30.744 2.962,30.662 3.071,30.662 3.204 C 30.662 3.338,30.544 3.492,30.401 3.547 C 30.257 3.602,30.139 3.807,30.139 4.002 C 30.139 4.196,30.061 4.355,29.965 4.355 C 29.869 4.355,29.791 4.473,29.791 4.617 C 29.791 4.760,29.673 4.878,29.530 4.878 C 29.367 4.878,29.268 5.043,29.268 5.314 C 29.268 5.585,29.170 5.749,29.007 5.749 C 28.863 5.749,28.746 5.867,28.746 6.010 C 28.746 6.154,28.667 6.272,28.571 6.272 C 28.476 6.272,28.397 6.546,28.397 6.882 C 28.397 7.307,28.318 7.491,28.136 7.491 C 27.963 7.491,27.875 7.664,27.875 7.999 C 27.875 8.279,27.790 8.536,27.686 8.570 C 27.551 8.615,27.534 15.391,27.625 32.388 L 27.753 56.142 28.729 57.102 C 30.221 58.572,34.841 62.797,35.027 62.863 C 35.130 62.899,35.192 53.203,35.192 37.042 C 35.192 11.409,35.195 11.154,35.548 10.212 C 35.917 9.224,36.759 8.308,37.838 7.719 C 38.699 7.249,48.285 7.142,49.156 7.592 C 50.131 8.097,50.856 9.171,50.865 10.127 C 50.874 11.071,51.297 11.911,52.117 12.613 L 52.850 13.240 67.253 13.240 L 81.655 13.240 82.349 12.738 C 83.162 12.149,83.599 11.319,83.745 10.092 C 84.044 7.566,84.675 7.317,90.778 7.317 C 96.987 7.317,97.716 7.541,98.920 9.822 L 99.390 10.714 99.436 69.077 C 99.477 122.961,99.459 127.510,99.193 128.358 C 98.819 129.549,97.811 130.686,96.708 131.160 L 95.842 131.533 67.477 131.533 C 37.132 131.534,38.338 131.571,37.071 130.604 C 35.285 129.242,35.170 128.734,35.230 122.480 L 35.279 117.421 34.721 117.421 C 33.056 117.422,31.007 116.458,29.318 114.880 C 28.668 114.273,28.038 113.773,27.918 113.769 C 27.568 113.759,27.611 127.345,27.966 129.094 C 29.079 134.562,33.045 138.264,38.415 138.846 C 41.523 139.182,96.706 138.835,97.997 138.471 C 101.934 137.360,104.743 134.673,106.250 130.577 L 106.700 129.355 106.747 70.131 C 106.778 30.822,106.852 10.848,106.968 10.732 C 107.194 10.506,107.195 9.930,106.969 9.930 C 106.872 9.930,106.794 9.473,106.794 8.906 C 106.794 8.209,106.711 7.813,106.533 7.666 C 106.389 7.546,106.272 7.262,106.272 7.034 C 106.272 6.807,106.193 6.620,106.098 6.620 C 106.002 6.620,105.923 6.536,105.923 6.434 C 105.923 6.331,105.806 6.129,105.662 5.986 C 105.518 5.842,105.401 5.584,105.401 5.414 C 105.401 5.243,105.205 4.892,104.965 4.633 C 104.726 4.375,104.530 4.089,104.530 3.998 C 104.530 3.907,104.446 3.833,104.343 3.833 C 104.102 3.833,103.659 3.390,103.659 3.148 C 103.659 3.046,103.541 2.962,103.397 2.962 C 103.253 2.962,103.136 2.878,103.136 2.775 C 103.136 2.534,102.693 2.091,102.451 2.091 C 102.349 2.091,102.265 1.973,102.265 1.829 C 102.265 1.667,102.100 1.568,101.829 1.568 C 101.590 1.568,101.394 1.490,101.394 1.394 C 101.394 1.298,101.274 1.220,101.127 1.220 C 100.980 1.220,100.815 1.102,100.760 0.958 C 100.701 0.805,100.440 0.697,100.131 0.697 C 99.829 0.697,99.507 0.566,99.380 0.392 C 99.169 0.104,37.148 -0.155,35.312 0.125 M50.575 43.547 C 49.051 44.476,49.124 46.835,50.702 47.651 C 51.122 47.868,52.407 47.909,58.676 47.909 L 66.151 47.909 66.740 47.512 C 68.161 46.555,68.125 44.432,66.673 43.547 C 65.808 43.020,51.439 43.020,50.575 43.547 M255.575 45.383 C 255.575 45.546,255.410 45.645,255.139 45.645 C 254.900 45.645,254.704 45.714,254.704 45.800 C 254.704 45.885,254.508 46.004,254.268 46.065 C 253.950 46.144,253.833 46.290,253.833 46.606 C 253.833 46.874,253.733 47.038,253.571 47.038 C 253.362 47.038,253.310 47.300,253.310 48.345 C 253.310 49.390,253.362 49.652,253.571 49.652 C 253.716 49.652,253.833 49.806,253.833 49.998 C 253.833 50.556,254.372 51.045,254.985 51.045 C 255.316 51.045,255.578 51.150,255.638 51.307 C 255.704 51.480,255.978 51.568,256.446 51.568 C 256.914 51.568,257.188 51.480,257.254 51.307 C 257.309 51.163,257.511 51.045,257.702 51.045 C 257.893 51.045,258.315 50.779,258.641 50.453 C 259.902 49.192,259.232 45.645,257.733 45.645 C 257.525 45.645,257.309 45.527,257.254 45.383 C 257.185 45.204,256.905 45.122,256.364 45.122 C 255.779 45.122,255.575 45.189,255.575 45.383 M293.728 56.010 L 293.728 66.899 296.167 66.899 L 298.606 66.899 298.606 56.010 L 298.606 45.122 296.167 45.122 L 293.728 45.122 293.728 56.010 M200.174 51.742 C 200.174 51.838,200.035 51.916,199.865 51.916 C 199.554 51.916,199.084 52.352,198.904 52.807 C 198.851 52.940,198.802 52.794,198.794 52.483 L 198.780 51.916 196.341 51.916 L 193.902 51.916 193.902 59.408 L 193.902 66.899 196.341 66.899 L 198.780 66.899 198.780 62.369 C 198.780 58.459,198.816 57.840,199.042 57.840 C 199.204 57.840,199.303 57.675,199.303 57.404 C 199.303 57.133,199.402 56.969,199.564 56.969 C 199.708 56.969,199.826 56.851,199.826 56.707 C 199.826 56.545,199.990 56.446,200.261 56.446 C 200.501 56.446,200.697 56.368,200.697 56.272 C 200.697 56.176,200.814 56.098,200.958 56.098 C 201.102 56.098,201.220 56.176,201.220 56.272 C 201.220 56.368,201.416 56.446,201.655 56.446 C 202.003 56.446,202.091 56.533,202.091 56.882 C 202.091 57.121,202.169 57.317,202.265 57.317 C 202.377 57.317,202.439 59.030,202.439 62.108 L 202.439 66.899 204.965 66.899 L 207.491 66.899 207.491 62.388 C 207.491 58.539,207.530 57.862,207.753 57.777 C 207.896 57.722,208.014 57.517,208.014 57.323 C 208.014 57.128,208.092 56.969,208.188 56.969 C 208.284 56.969,208.362 56.851,208.362 56.707 C 208.362 56.545,208.527 56.446,208.798 56.446 C 209.037 56.446,209.233 56.368,209.233 56.272 C 209.233 56.176,209.351 56.098,209.495 56.098 C 209.639 56.098,209.756 56.176,209.756 56.272 C 209.756 56.368,209.860 56.446,209.988 56.446 C 210.116 56.446,210.325 56.642,210.453 56.882 C 210.581 57.121,210.790 57.317,210.918 57.317 C 211.105 57.317,211.150 58.236,211.150 62.108 L 211.150 66.899 213.589 66.899 L 216.028 66.899 216.028 61.063 C 216.028 57.288,215.966 55.226,215.854 55.226 C 215.758 55.226,215.679 55.028,215.679 54.785 C 215.679 54.543,215.562 54.299,215.418 54.244 C 215.274 54.189,215.157 53.990,215.157 53.802 C 215.157 53.432,214.774 52.962,214.472 52.962 C 214.370 52.962,214.286 52.844,214.286 52.700 C 214.286 52.557,214.202 52.439,214.099 52.439 C 213.996 52.439,213.795 52.321,213.651 52.178 C 213.507 52.034,213.199 51.916,212.967 51.916 C 212.734 51.916,212.544 51.838,212.544 51.742 C 212.544 51.635,211.672 51.568,210.279 51.568 C 208.885 51.568,208.014 51.635,208.014 51.742 C 208.014 51.838,207.818 51.916,207.578 51.916 C 207.307 51.916,207.143 52.015,207.143 52.178 C 207.143 52.321,207.025 52.439,206.882 52.439 C 206.738 52.439,206.620 52.557,206.620 52.700 C 206.620 52.844,206.503 52.962,206.359 52.962 C 206.215 52.962,206.098 52.844,206.098 52.700 C 206.098 52.557,205.980 52.439,205.836 52.439 C 205.693 52.439,205.575 52.362,205.575 52.268 C 205.575 52.174,205.379 52.048,205.139 51.988 C 204.900 51.928,204.704 51.809,204.704 51.723 C 204.704 51.638,203.685 51.568,202.439 51.568 C 201.045 51.568,200.174 51.635,200.174 51.742 M222.125 51.742 C 222.125 51.838,221.927 51.916,221.684 51.916 C 221.442 51.916,221.198 52.034,221.143 52.178 C 221.088 52.321,220.855 52.439,220.626 52.439 C 220.372 52.439,220.209 52.541,220.209 52.700 C 220.209 52.844,220.125 52.962,220.022 52.962 C 219.781 52.962,219.338 53.405,219.338 53.646 C 219.338 53.749,219.220 53.833,219.077 53.833 C 218.914 53.833,218.815 53.997,218.815 54.268 C 218.815 54.508,218.737 54.704,218.641 54.704 C 218.545 54.704,218.467 54.821,218.467 54.965 C 218.467 55.109,218.349 55.226,218.206 55.226 C 218.025 55.226,217.944 55.408,217.944 55.818 C 217.944 56.182,217.844 56.447,217.683 56.509 C 217.465 56.593,217.422 57.090,217.422 59.489 C 217.422 61.933,217.461 62.369,217.683 62.369 C 217.872 62.369,217.944 62.563,217.944 63.066 C 217.944 63.569,218.017 63.763,218.206 63.763 C 218.355 63.763,218.467 63.920,218.467 64.130 C 218.467 64.546,220.418 66.551,220.823 66.551 C 220.965 66.551,221.080 66.629,221.080 66.725 C 221.080 66.821,221.268 66.899,221.497 66.899 C 221.726 66.899,221.959 67.017,222.014 67.160 C 222.097 67.375,222.547 67.422,224.559 67.422 C 226.616 67.422,227.003 67.380,227.003 67.160 C 227.003 66.998,227.168 66.899,227.439 66.899 C 227.679 66.899,227.875 66.821,227.875 66.725 C 227.875 66.629,227.992 66.551,228.136 66.551 C 228.280 66.551,228.397 66.629,228.397 66.725 C 228.397 66.833,229.326 66.899,230.836 66.899 L 233.275 66.899 233.275 59.408 L 233.275 51.916 230.836 51.916 C 228.784 51.916,228.397 51.958,228.397 52.178 C 228.397 52.321,228.280 52.439,228.136 52.439 C 227.992 52.439,227.875 52.321,227.875 52.178 C 227.875 52.015,227.710 51.916,227.439 51.916 C 227.199 51.916,227.003 51.838,227.003 51.742 C 227.003 51.634,226.074 51.568,224.564 51.568 C 223.055 51.568,222.125 51.634,222.125 51.742 M240.244 51.742 C 240.244 51.838,240.045 51.916,239.803 51.916 C 239.560 51.916,239.317 52.034,239.262 52.178 C 239.206 52.321,239.024 52.439,238.856 52.439 C 238.688 52.439,238.403 52.635,238.223 52.875 C 238.044 53.114,237.797 53.310,237.676 53.310 C 237.555 53.310,237.456 53.428,237.456 53.571 C 237.456 53.715,237.339 53.833,237.195 53.833 C 237.051 53.833,236.934 53.950,236.934 54.094 C 236.934 54.238,236.855 54.355,236.760 54.355 C 236.664 54.355,236.585 54.551,236.585 54.791 C 236.585 55.062,236.487 55.226,236.324 55.226 C 236.161 55.226,236.063 55.391,236.063 55.662 C 236.063 55.902,235.984 56.098,235.889 56.098 C 235.779 56.098,235.714 57.172,235.714 58.972 C 235.714 60.772,235.779 61.847,235.889 61.847 C 235.984 61.847,236.063 62.160,236.063 62.544 C 236.063 63.047,236.135 63.240,236.324 63.240 C 236.468 63.240,236.585 63.358,236.585 63.502 C 236.585 63.645,236.664 63.763,236.760 63.763 C 236.855 63.763,236.934 63.922,236.934 64.117 C 236.934 64.312,237.051 64.516,237.195 64.571 C 237.339 64.626,237.456 64.781,237.456 64.914 C 237.456 65.048,237.574 65.157,237.718 65.157 C 237.861 65.157,237.979 65.235,237.979 65.331 C 237.979 65.427,238.175 65.505,238.415 65.505 C 238.686 65.505,238.850 65.604,238.850 65.767 C 238.850 65.910,238.934 66.028,239.037 66.028 C 239.139 66.028,239.341 66.145,239.485 66.289 C 239.629 66.433,239.937 66.551,240.169 66.551 C 240.402 66.551,240.592 66.629,240.592 66.725 C 240.592 66.821,240.396 66.899,240.157 66.899 C 239.886 66.899,239.721 66.998,239.721 67.160 C 239.721 67.323,239.557 67.422,239.286 67.422 C 239.046 67.422,238.850 67.492,238.850 67.577 C 238.850 67.662,238.654 67.781,238.415 67.842 C 238.175 67.902,237.979 68.028,237.979 68.122 C 237.979 68.216,237.861 68.293,237.718 68.293 C 237.574 68.293,237.456 68.410,237.456 68.554 C 237.456 68.717,237.292 68.815,237.021 68.815 C 236.639 68.815,236.585 68.891,236.585 69.425 C 236.585 69.760,236.664 70.035,236.760 70.035 C 236.855 70.035,236.934 70.194,236.934 70.389 C 236.934 70.583,237.051 70.788,237.195 70.843 C 237.339 70.898,237.456 71.052,237.456 71.186 C 237.456 71.319,237.566 71.429,237.699 71.429 C 237.833 71.429,237.987 71.546,238.042 71.690 C 238.097 71.834,238.302 71.951,238.496 71.951 C 238.691 71.951,238.850 72.030,238.850 72.125 C 238.850 72.221,239.046 72.300,239.286 72.300 C 239.557 72.300,239.721 72.398,239.721 72.561 C 239.721 72.749,239.913 72.822,240.399 72.822 C 240.842 72.822,241.113 72.913,241.178 73.084 C 241.260 73.298,241.701 73.345,243.636 73.345 C 245.615 73.345,245.993 73.303,245.993 73.084 C 245.993 72.895,246.187 72.822,246.690 72.822 C 247.193 72.822,247.387 72.750,247.387 72.561 C 247.387 72.398,247.551 72.300,247.822 72.300 C 248.062 72.300,248.258 72.221,248.258 72.125 C 248.258 72.030,248.454 71.951,248.693 71.951 C 248.964 71.951,249.129 71.852,249.129 71.690 C 249.129 71.546,249.213 71.429,249.317 71.429 C 249.645 71.429,250.523 70.424,250.523 70.048 C 250.523 69.843,250.636 69.686,250.784 69.686 C 250.958 69.686,251.045 69.512,251.045 69.164 C 251.045 68.876,251.124 68.641,251.220 68.641 C 251.333 68.641,251.394 65.738,251.394 60.279 L 251.394 51.916 248.955 51.916 C 246.903 51.916,246.516 51.958,246.516 52.178 C 246.516 52.321,246.398 52.439,246.254 52.439 C 246.111 52.439,245.993 52.321,245.993 52.178 C 245.993 52.015,245.828 51.916,245.557 51.916 C 245.318 51.916,245.122 51.838,245.122 51.742 C 245.122 51.634,244.193 51.568,242.683 51.568 C 241.173 51.568,240.244 51.634,240.244 51.742 M265.592 51.742 C 265.533 51.838,265.330 51.916,265.141 51.916 C 264.952 51.916,264.752 52.034,264.697 52.178 C 264.642 52.321,264.409 52.439,264.180 52.439 C 263.926 52.439,263.763 52.541,263.763 52.700 C 263.763 52.844,263.645 52.962,263.502 52.962 C 263.358 52.962,263.240 53.035,263.240 53.124 C 263.240 53.213,263.065 53.311,262.850 53.342 C 262.634 53.372,262.432 53.544,262.397 53.727 C 262.363 53.908,262.146 54.230,261.916 54.443 C 261.686 54.657,261.498 54.912,261.498 55.010 C 261.498 55.109,261.381 55.234,261.237 55.289 C 261.086 55.347,260.976 55.608,260.976 55.908 C 260.976 56.192,260.897 56.474,260.801 56.533 C 260.697 56.598,260.627 57.783,260.627 59.505 C 260.627 61.298,260.692 62.369,260.801 62.369 C 260.897 62.369,260.976 62.633,260.976 62.955 C 260.976 63.376,261.098 63.632,261.411 63.867 C 261.651 64.047,261.847 64.294,261.847 64.416 C 261.847 64.759,263.115 66.027,263.458 66.028 C 263.626 66.028,263.763 66.145,263.763 66.289 C 263.763 66.452,263.928 66.551,264.199 66.551 C 264.438 66.551,264.634 66.629,264.634 66.725 C 264.634 66.821,264.822 66.899,265.051 66.899 C 265.280 66.899,265.513 67.017,265.568 67.160 C 265.651 67.377,266.120 67.422,268.287 67.422 C 270.499 67.422,270.906 67.381,270.906 67.160 C 270.906 66.986,271.080 66.899,271.429 66.899 C 271.716 66.899,271.951 66.821,271.951 66.725 C 271.951 66.629,272.110 66.551,272.305 66.551 C 272.500 66.551,272.704 66.433,272.759 66.289 C 272.814 66.145,272.977 66.028,273.120 66.028 C 273.510 66.028,274.564 64.896,274.564 64.477 C 274.564 64.268,274.676 64.111,274.826 64.111 C 275.008 64.111,275.087 63.928,275.087 63.502 C 275.087 63.076,275.008 62.892,274.826 62.892 C 274.682 62.892,274.564 62.774,274.564 62.631 C 274.564 62.468,274.400 62.369,274.129 62.369 C 273.889 62.369,273.693 62.291,273.693 62.195 C 273.693 62.099,273.497 62.021,273.258 62.021 C 272.987 62.021,272.822 61.922,272.822 61.760 C 272.822 61.616,272.705 61.498,272.561 61.498 C 272.417 61.498,272.300 61.421,272.300 61.327 C 272.300 61.233,272.104 61.107,271.864 61.047 C 271.625 60.987,271.429 60.868,271.429 60.783 C 271.429 60.697,271.233 60.627,270.993 60.627 C 270.645 60.627,270.557 60.714,270.557 61.063 C 270.557 61.334,270.459 61.498,270.296 61.498 C 270.152 61.498,270.035 61.616,270.035 61.760 C 270.035 61.922,269.870 62.021,269.599 62.021 C 269.360 62.021,269.164 62.099,269.164 62.195 C 269.164 62.291,268.776 62.369,268.303 62.369 C 267.830 62.369,267.394 62.291,267.334 62.195 C 267.275 62.099,267.035 62.021,266.802 62.021 C 266.540 62.021,266.376 61.920,266.376 61.760 C 266.376 61.616,266.298 61.498,266.202 61.498 C 266.106 61.498,266.028 61.302,266.028 61.063 C 266.028 60.792,265.929 60.627,265.767 60.627 C 265.562 60.627,265.505 60.387,265.505 59.513 C 265.505 58.684,265.572 58.374,265.767 58.299 C 265.910 58.244,266.028 58.034,266.028 57.833 C 266.028 57.364,266.423 56.969,266.892 56.969 C 267.093 56.969,267.303 56.851,267.359 56.707 C 267.429 56.524,267.714 56.446,268.311 56.446 C 268.953 56.446,269.164 56.511,269.164 56.707 C 269.164 56.870,269.328 56.969,269.599 56.969 C 269.839 56.969,270.035 57.047,270.035 57.143 C 270.035 57.239,270.152 57.317,270.296 57.317 C 270.456 57.317,270.557 57.480,270.557 57.734 C 270.557 58.242,270.978 58.440,271.324 58.094 C 271.464 57.954,271.740 57.840,271.939 57.840 C 272.143 57.840,272.300 57.727,272.300 57.578 C 272.300 57.416,272.464 57.317,272.735 57.317 C 272.975 57.317,273.171 57.239,273.171 57.143 C 273.171 57.047,273.288 56.969,273.432 56.969 C 273.576 56.969,273.693 56.851,273.693 56.707 C 273.693 56.563,273.848 56.446,274.040 56.446 C 274.605 56.446,275.087 55.907,275.087 55.275 C 275.087 54.883,275.005 54.704,274.826 54.704 C 274.682 54.704,274.564 54.586,274.564 54.443 C 274.564 54.299,274.488 54.181,274.394 54.181 C 274.300 54.181,274.173 53.985,274.113 53.746 C 274.043 53.466,273.882 53.310,273.662 53.310 C 273.292 53.310,272.822 52.927,272.822 52.626 C 272.822 52.523,272.635 52.439,272.405 52.439 C 272.176 52.439,271.943 52.321,271.888 52.178 C 271.833 52.034,271.589 51.916,271.347 51.916 C 271.104 51.916,270.906 51.838,270.906 51.742 C 270.906 51.634,269.922 51.568,268.303 51.568 C 266.756 51.568,265.656 51.639,265.592 51.742 M280.139 51.742 C 280.139 51.838,279.941 51.916,279.698 51.916 C 279.456 51.916,279.212 52.034,279.157 52.178 C 279.102 52.321,278.919 52.439,278.751 52.439 C 278.583 52.439,278.299 52.635,278.119 52.875 C 277.939 53.114,277.693 53.310,277.572 53.310 C 277.451 53.310,277.352 53.419,277.352 53.553 C 277.352 53.686,277.234 53.841,277.091 53.896 C 276.947 53.951,276.829 54.155,276.829 54.350 C 276.829 54.545,276.751 54.704,276.655 54.704 C 276.559 54.704,276.481 54.813,276.481 54.947 C 276.481 55.080,276.363 55.234,276.220 55.289 C 276.067 55.348,275.958 55.609,275.958 55.918 C 275.958 56.208,275.880 56.446,275.784 56.446 C 275.675 56.446,275.610 57.549,275.610 59.408 C 275.610 61.266,275.675 62.369,275.784 62.369 C 275.880 62.369,275.958 62.646,275.958 62.985 C 275.958 63.371,276.055 63.637,276.220 63.700 C 276.363 63.755,276.481 63.955,276.481 64.144 C 276.481 64.505,277.367 65.505,277.687 65.505 C 277.790 65.505,277.875 65.610,277.875 65.739 C 277.875 65.868,278.149 66.121,278.484 66.301 C 278.820 66.482,279.094 66.690,279.094 66.764 C 279.094 66.838,279.329 66.899,279.617 66.899 C 279.965 66.899,280.139 66.986,280.139 67.160 C 280.139 67.380,280.527 67.422,282.578 67.422 C 284.630 67.422,285.017 67.380,285.017 67.160 C 285.017 66.998,285.182 66.899,285.453 66.899 C 285.693 66.899,285.889 66.821,285.889 66.725 C 285.889 66.629,286.006 66.551,286.150 66.551 C 286.294 66.551,286.411 66.629,286.411 66.725 C 286.411 66.833,287.370 66.899,288.939 66.899 L 291.467 66.899 291.422 59.451 L 291.376 52.003 288.894 51.955 C 286.762 51.914,286.411 51.944,286.411 52.173 C 286.411 52.319,286.294 52.439,286.150 52.439 C 286.006 52.439,285.889 52.321,285.889 52.178 C 285.889 52.015,285.724 51.916,285.453 51.916 C 285.213 51.916,285.017 51.838,285.017 51.742 C 285.017 51.634,284.088 51.568,282.578 51.568 C 281.069 51.568,280.139 51.634,280.139 51.742 M253.833 59.408 L 253.833 66.899 256.272 66.899 L 258.711 66.899 258.711 59.408 L 258.711 51.916 256.272 51.916 L 253.833 51.916 253.833 59.408 M243.815 56.272 C 243.875 56.368,244.193 56.446,244.522 56.446 C 244.939 56.446,245.122 56.526,245.122 56.707 C 245.122 56.851,245.206 56.969,245.309 56.969 C 245.550 56.969,245.993 57.412,245.993 57.653 C 245.993 57.756,246.111 57.840,246.254 57.840 C 246.643 57.840,246.611 59.734,246.211 60.438 C 246.043 60.732,245.847 60.974,245.775 60.975 C 245.703 60.975,245.645 61.093,245.645 61.237 C 245.645 61.400,245.480 61.498,245.209 61.498 C 244.938 61.498,244.774 61.597,244.774 61.760 C 244.774 61.970,244.503 62.021,243.380 62.021 C 242.257 62.021,241.986 61.970,241.986 61.760 C 241.986 61.616,241.868 61.498,241.725 61.498 C 241.581 61.498,241.463 61.381,241.463 61.237 C 241.463 61.093,241.405 60.975,241.333 60.975 C 241.261 60.974,241.065 60.732,240.897 60.438 C 240.497 59.734,240.465 57.840,240.854 57.840 C 240.997 57.840,241.115 57.756,241.115 57.653 C 241.115 57.412,241.558 56.969,241.799 56.969 C 241.902 56.969,241.986 56.851,241.986 56.707 C 241.986 56.526,242.169 56.446,242.586 56.446 C 242.915 56.446,243.233 56.368,243.293 56.272 C 243.352 56.176,243.469 56.098,243.554 56.098 C 243.639 56.098,243.756 56.176,243.815 56.272 M226.544 56.707 C 226.599 56.851,226.843 56.969,227.085 56.969 C 227.419 56.969,227.526 57.059,227.526 57.341 C 227.526 57.545,227.722 57.894,227.962 58.116 C 228.490 58.606,228.630 60.627,228.136 60.627 C 227.973 60.627,227.875 60.792,227.875 61.063 C 227.875 61.302,227.796 61.498,227.700 61.498 C 227.605 61.498,227.526 61.616,227.526 61.760 C 227.526 61.922,227.362 62.021,227.091 62.021 C 226.851 62.021,226.655 62.099,226.655 62.195 C 226.655 62.297,226.074 62.369,225.261 62.369 C 224.448 62.369,223.868 62.297,223.868 62.195 C 223.868 62.099,223.750 62.021,223.606 62.021 C 223.463 62.021,223.345 61.903,223.345 61.760 C 223.345 61.616,223.227 61.498,223.084 61.498 C 222.921 61.498,222.822 61.334,222.822 61.063 C 222.822 60.823,222.744 60.627,222.648 60.627 C 222.549 60.627,222.474 60.105,222.474 59.408 C 222.474 58.711,222.549 58.188,222.648 58.188 C 222.744 58.188,222.822 57.992,222.822 57.753 C 222.822 57.482,222.921 57.317,223.084 57.317 C 223.227 57.317,223.345 57.239,223.345 57.143 C 223.345 57.047,223.504 56.969,223.699 56.969 C 223.893 56.969,224.098 56.851,224.153 56.707 C 224.227 56.513,224.536 56.446,225.348 56.446 C 226.161 56.446,226.469 56.513,226.544 56.707 M284.669 56.707 C 284.669 56.870,284.834 56.969,285.105 56.969 C 285.433 56.969,285.540 57.060,285.540 57.341 C 285.540 57.545,285.736 57.894,285.976 58.116 C 286.504 58.606,286.644 60.627,286.150 60.627 C 285.987 60.627,285.889 60.792,285.889 61.063 C 285.889 61.302,285.810 61.498,285.714 61.498 C 285.618 61.498,285.540 61.616,285.540 61.760 C 285.540 61.922,285.376 62.021,285.105 62.021 C 284.865 62.021,284.669 62.099,284.669 62.195 C 284.669 62.297,284.088 62.369,283.275 62.369 C 282.462 62.369,281.882 62.297,281.882 62.195 C 281.882 62.099,281.764 62.021,281.620 62.021 C 281.476 62.021,281.359 61.903,281.359 61.760 C 281.359 61.616,281.280 61.498,281.185 61.498 C 281.089 61.498,281.010 61.339,281.010 61.144 C 281.010 60.950,280.893 60.745,280.749 60.690 C 280.552 60.615,280.488 60.298,280.488 59.408 C 280.488 58.518,280.552 58.201,280.749 58.125 C 280.893 58.070,281.010 57.899,281.010 57.746 C 281.010 57.387,281.428 56.969,281.787 56.969 C 281.941 56.969,282.112 56.851,282.167 56.707 C 282.243 56.510,282.561 56.446,283.468 56.446 C 284.419 56.446,284.669 56.500,284.669 56.707 M246.516 66.362 C 246.516 66.740,245.975 67.767,245.775 67.769 C 245.703 67.770,245.645 67.888,245.645 68.031 C 245.645 68.194,245.480 68.293,245.209 68.293 C 244.938 68.293,244.774 68.391,244.774 68.554 C 244.774 68.755,244.551 68.815,243.815 68.815 C 243.080 68.815,242.857 68.755,242.857 68.554 C 242.857 68.408,242.702 68.293,242.506 68.293 C 242.312 68.293,241.868 67.999,241.519 67.639 L 240.884 66.986 242.742 66.937 C 243.786 66.909,244.599 66.814,244.599 66.719 C 244.599 66.626,244.876 66.551,245.215 66.551 C 245.601 66.551,245.867 66.453,245.930 66.289 C 246.075 65.912,246.516 65.967,246.516 66.362 M50.602 75.237 C 49.065 76.175,49.110 78.535,50.681 79.347 C 51.431 79.735,65.541 79.752,66.465 79.366 C 68.075 78.693,68.236 76.318,66.740 75.310 L 66.151 74.913 58.641 74.914 C 51.635 74.914,51.097 74.936,50.602 75.237 M31.461 78.547 C 31.378 78.682,34.673 81.889,35.038 82.027 C 35.122 82.059,35.192 81.490,35.192 80.764 C 35.192 80.037,35.195 79.384,35.198 79.312 C 35.202 79.240,34.633 79.095,33.935 78.990 C 33.237 78.884,32.445 78.708,32.175 78.598 C 31.588 78.358,31.579 78.357,31.461 78.547 M293.269 80.749 C 293.194 80.944,292.884 81.010,292.055 81.010 C 291.181 81.010,290.941 81.067,290.941 81.272 C 290.941 81.469,290.728 81.533,290.070 81.533 C 289.591 81.533,289.199 81.611,289.199 81.707 C 289.199 81.803,288.922 81.882,288.583 81.882 C 288.197 81.882,287.931 81.979,287.868 82.143 C 287.813 82.287,287.580 82.404,287.351 82.404 C 287.121 82.404,286.934 82.483,286.934 82.578 C 286.934 82.674,286.735 82.753,286.493 82.753 C 286.250 82.753,286.007 82.870,285.952 83.014 C 285.896 83.158,285.664 83.275,285.434 83.275 C 285.180 83.275,285.017 83.377,285.017 83.537 C 285.017 83.687,284.860 83.798,284.645 83.798 C 284.441 83.798,284.092 83.994,283.870 84.233 C 283.648 84.473,283.339 84.669,283.184 84.669 C 282.864 84.669,282.404 85.073,282.404 85.353 C 282.404 85.456,282.287 85.540,282.143 85.540 C 281.999 85.540,281.882 85.658,281.882 85.801 C 281.882 85.949,281.726 86.063,281.524 86.063 C 281.099 86.063,278.223 88.857,278.223 89.270 C 278.223 89.422,278.145 89.547,278.049 89.547 C 277.953 89.547,277.875 89.665,277.875 89.808 C 277.875 89.952,277.757 90.070,277.613 90.070 C 277.470 90.070,277.352 90.179,277.352 90.312 C 277.352 90.446,277.234 90.600,277.091 90.655 C 276.947 90.710,276.829 90.915,276.829 91.110 C 276.829 91.304,276.751 91.463,276.655 91.463 C 276.559 91.463,276.481 91.573,276.481 91.706 C 276.481 91.840,276.363 91.994,276.220 92.049 C 276.076 92.104,275.958 92.309,275.958 92.503 C 275.958 92.698,275.880 92.857,275.784 92.857 C 275.688 92.857,275.610 93.053,275.610 93.293 C 275.610 93.564,275.511 93.728,275.348 93.728 C 275.189 93.728,275.087 93.891,275.087 94.145 C 275.087 94.374,274.970 94.607,274.826 94.662 C 274.682 94.717,274.564 94.961,274.564 95.204 C 274.564 95.446,274.486 95.645,274.390 95.645 C 274.294 95.645,274.216 95.911,274.216 96.236 C 274.216 96.600,274.116 96.865,273.955 96.927 C 273.770 96.998,273.693 97.285,273.693 97.904 C 273.693 98.386,273.615 98.780,273.519 98.780 C 273.421 98.780,273.345 99.274,273.345 99.913 C 273.345 100.803,273.289 101.045,273.084 101.045 C 272.858 101.045,272.822 101.636,272.822 105.314 C 272.822 108.991,272.858 109.582,273.084 109.582 C 273.289 109.582,273.345 109.824,273.345 110.714 C 273.345 111.353,273.421 111.847,273.519 111.847 C 273.615 111.847,273.693 112.160,273.693 112.544 C 273.693 113.047,273.766 113.240,273.955 113.240 C 274.136 113.240,274.216 113.423,274.216 113.840 C 274.216 114.170,274.294 114.488,274.390 114.547 C 274.486 114.606,274.564 114.840,274.564 115.068 C 274.564 115.295,274.682 115.598,274.826 115.742 C 274.970 115.885,275.087 116.157,275.087 116.345 C 275.087 116.533,275.205 116.733,275.348 116.788 C 275.492 116.843,275.612 117.028,275.615 117.198 C 275.622 117.579,276.013 118.118,276.282 118.118 C 276.391 118.118,276.483 118.295,276.486 118.510 C 276.493 118.960,276.861 119.512,277.153 119.512 C 277.263 119.512,277.352 119.708,277.352 119.948 C 277.352 120.219,277.451 120.383,277.613 120.383 C 277.757 120.383,277.875 120.472,277.875 120.580 C 277.875 120.689,278.149 121.036,278.484 121.353 C 278.820 121.669,279.094 122.011,279.094 122.114 C 279.094 122.216,279.212 122.300,279.355 122.300 C 279.499 122.300,279.617 122.378,279.617 122.474 C 279.617 122.570,279.734 122.648,279.878 122.648 C 280.022 122.648,280.139 122.766,280.139 122.909 C 280.139 123.053,280.218 123.171,280.314 123.171 C 280.409 123.171,280.488 123.288,280.488 123.432 C 280.488 123.576,280.572 123.693,280.674 123.693 C 280.916 123.693,281.359 124.137,281.359 124.378 C 281.359 124.480,281.476 124.564,281.620 124.564 C 281.764 124.564,281.882 124.643,281.882 124.739 C 281.882 124.834,281.999 124.913,282.143 124.913 C 282.287 124.913,282.404 125.030,282.404 125.174 C 282.404 125.337,282.569 125.436,282.840 125.436 C 283.111 125.436,283.275 125.534,283.275 125.697 C 283.275 125.841,283.393 125.958,283.537 125.958 C 283.680 125.958,283.798 126.037,283.798 126.132 C 283.798 126.228,283.994 126.307,284.233 126.307 C 284.504 126.307,284.669 126.405,284.669 126.568 C 284.669 126.731,284.834 126.829,285.105 126.829 C 285.344 126.829,285.540 126.908,285.540 127.003 C 285.540 127.099,285.736 127.178,285.976 127.178 C 286.247 127.178,286.411 127.276,286.411 127.439 C 286.411 127.599,286.574 127.700,286.828 127.700 C 287.057 127.700,287.290 127.818,287.345 127.962 C 287.408 128.126,287.675 128.223,288.061 128.223 C 288.399 128.223,288.676 128.301,288.676 128.397 C 288.676 128.493,288.990 128.571,289.373 128.571 C 289.876 128.571,290.070 128.644,290.070 128.833 C 290.070 129.030,290.283 129.094,290.941 129.094 C 291.420 129.094,291.812 129.172,291.812 129.268 C 291.812 129.373,292.538 129.443,293.641 129.443 C 295.151 129.443,295.470 129.488,295.470 129.704 C 295.470 129.917,295.761 129.965,297.038 129.965 C 298.316 129.965,298.606 129.917,298.606 129.704 C 298.606 129.488,298.926 129.443,300.436 129.443 C 301.539 129.443,302.265 129.373,302.265 129.268 C 302.265 129.172,302.657 129.094,303.136 129.094 C 303.794 129.094,304.007 129.030,304.007 128.833 C 304.007 128.644,304.201 128.571,304.704 128.571 C 305.087 128.571,305.401 128.493,305.401 128.397 C 305.401 128.301,305.714 128.223,306.098 128.223 C 306.601 128.223,306.794 128.150,306.794 127.962 C 306.794 127.799,306.959 127.700,307.230 127.700 C 307.501 127.700,307.666 127.602,307.666 127.439 C 307.666 127.276,307.830 127.178,308.101 127.178 C 308.341 127.178,308.537 127.099,308.537 127.003 C 308.537 126.908,308.735 126.829,308.978 126.829 C 309.220 126.829,309.464 126.712,309.519 126.568 C 309.574 126.424,309.748 126.304,309.905 126.301 C 310.267 126.294,310.801 125.896,310.801 125.634 C 310.801 125.525,310.919 125.436,311.063 125.436 C 311.206 125.436,311.324 125.318,311.324 125.174 C 311.324 125.012,311.489 124.913,311.760 124.913 C 311.999 124.913,312.195 124.834,312.195 124.739 C 312.195 124.643,312.313 124.564,312.456 124.564 C 312.600 124.564,312.718 124.480,312.718 124.378 C 312.718 124.137,313.161 123.693,313.402 123.693 C 313.505 123.693,313.589 123.576,313.589 123.432 C 313.589 123.288,313.706 123.171,313.850 123.171 C 313.994 123.171,314.111 123.087,314.111 122.984 C 314.111 122.743,314.555 122.300,314.796 122.300 C 314.899 122.300,314.983 122.182,314.983 122.038 C 314.983 121.895,315.067 121.777,315.169 121.777 C 315.410 121.777,315.854 121.334,315.854 121.093 C 315.854 120.990,315.971 120.906,316.115 120.906 C 316.259 120.906,316.376 120.788,316.376 120.645 C 316.376 120.501,316.455 120.383,316.551 120.383 C 316.646 120.383,316.725 120.187,316.725 119.948 C 316.725 119.677,316.823 119.512,316.986 119.512 C 317.130 119.512,317.247 119.395,317.247 119.251 C 317.247 119.107,317.324 118.990,317.418 118.990 C 317.512 118.990,317.638 118.794,317.698 118.554 C 317.759 118.314,317.878 118.118,317.963 118.118 C 318.049 118.118,318.118 117.922,318.118 117.683 C 318.118 117.412,318.217 117.247,318.380 117.247 C 318.542 117.247,318.641 117.083,318.641 116.812 C 318.641 116.572,318.720 116.376,318.815 116.376 C 318.911 116.376,318.990 116.180,318.990 115.941 C 318.990 115.670,319.088 115.505,319.251 115.505 C 319.410 115.505,319.512 115.343,319.512 115.091 C 319.512 114.863,319.630 114.579,319.774 114.460 C 319.917 114.341,320.035 114.017,320.035 113.742 C 320.035 113.466,320.113 113.240,320.209 113.240 C 320.305 113.240,320.383 112.809,320.383 112.282 C 320.383 111.547,320.444 111.324,320.645 111.324 C 320.850 111.324,320.906 111.082,320.906 110.192 C 320.906 109.553,320.982 109.059,321.080 109.059 C 321.191 109.059,321.254 107.607,321.254 105.052 C 321.254 102.497,321.191 101.045,321.080 101.045 C 320.982 101.045,320.906 100.552,320.906 99.913 C 320.906 99.022,320.850 98.780,320.645 98.780 C 320.456 98.780,320.383 98.587,320.383 98.084 C 320.383 97.700,320.305 97.387,320.209 97.387 C 320.113 97.387,320.035 97.073,320.035 96.690 C 320.035 96.187,319.962 95.993,319.774 95.993 C 319.591 95.993,319.512 95.809,319.512 95.378 C 319.512 94.992,319.415 94.725,319.251 94.662 C 319.107 94.607,318.990 94.374,318.990 94.145 C 318.990 93.916,318.911 93.728,318.815 93.728 C 318.720 93.728,318.641 93.532,318.641 93.293 C 318.641 93.022,318.542 92.857,318.380 92.857 C 318.217 92.857,318.118 92.693,318.118 92.422 C 318.118 92.182,318.040 91.986,317.944 91.986 C 317.848 91.986,317.770 91.868,317.770 91.725 C 317.770 91.581,317.652 91.463,317.509 91.463 C 317.362 91.463,317.247 91.308,317.247 91.110 C 317.247 90.915,317.130 90.710,316.986 90.655 C 316.842 90.600,316.725 90.446,316.725 90.312 C 316.725 90.179,316.646 90.070,316.551 90.070 C 316.455 90.070,316.376 89.952,316.376 89.808 C 316.376 89.665,316.259 89.547,316.115 89.547 C 315.971 89.547,315.854 89.401,315.854 89.223 C 315.854 89.045,315.658 88.752,315.418 88.572 C 315.179 88.392,314.983 88.146,314.983 88.025 C 314.983 87.904,314.878 87.805,314.751 87.805 C 314.623 87.805,314.414 87.609,314.286 87.369 C 314.158 87.130,313.984 86.934,313.900 86.934 C 313.815 86.934,313.565 86.738,313.343 86.498 C 313.121 86.259,312.772 86.063,312.567 86.063 C 312.363 86.063,312.195 85.978,312.195 85.875 C 312.195 85.547,311.191 84.669,310.815 84.669 C 310.609 84.669,310.453 84.556,310.453 84.408 C 310.453 84.264,310.335 84.146,310.192 84.146 C 310.048 84.146,309.930 84.068,309.930 83.972 C 309.930 83.876,309.734 83.798,309.495 83.798 C 309.224 83.798,309.059 83.699,309.059 83.537 C 309.059 83.377,308.897 83.275,308.642 83.275 C 308.413 83.275,308.180 83.158,308.125 83.014 C 308.070 82.870,307.870 82.753,307.681 82.753 C 307.492 82.753,307.289 82.674,307.230 82.578 C 307.171 82.483,306.853 82.404,306.523 82.404 C 306.106 82.404,305.923 82.325,305.923 82.143 C 305.923 81.969,305.749 81.882,305.401 81.882 C 305.113 81.882,304.878 81.803,304.878 81.707 C 304.878 81.611,304.486 81.533,304.007 81.533 C 303.349 81.533,303.136 81.469,303.136 81.272 C 303.136 81.068,302.902 81.010,302.078 81.010 C 301.370 81.010,300.934 80.924,300.759 80.749 C 300.544 80.534,299.869 80.488,296.933 80.488 C 293.926 80.488,293.353 80.529,293.269 80.749 M192.509 105.052 L 192.509 128.571 198.171 128.571 L 203.833 128.571 203.833 121.341 L 203.833 114.111 209.059 114.111 C 213.589 114.111,214.286 114.077,214.286 113.850 C 214.286 113.653,214.499 113.589,215.157 113.589 C 215.636 113.589,216.028 113.510,216.028 113.415 C 216.028 113.319,216.305 113.240,216.643 113.240 C 217.029 113.240,217.296 113.143,217.359 112.979 C 217.414 112.835,217.646 112.718,217.876 112.718 C 218.105 112.718,218.293 112.648,218.293 112.562 C 218.293 112.477,218.489 112.358,218.728 112.298 C 218.968 112.238,219.164 112.112,219.164 112.018 C 219.164 111.924,219.281 111.847,219.425 111.847 C 219.569 111.847,219.686 111.729,219.686 111.585 C 219.686 111.423,219.851 111.324,220.122 111.324 C 220.361 111.324,220.557 111.246,220.557 111.150 C 220.557 111.054,220.675 110.976,220.819 110.976 C 220.963 110.976,221.080 110.858,221.080 110.714 C 221.080 110.571,221.164 110.453,221.267 110.453 C 221.508 110.453,221.951 110.010,221.951 109.769 C 221.951 109.666,222.069 109.582,222.213 109.582 C 222.356 109.582,222.474 109.498,222.474 109.395 C 222.474 109.154,222.917 108.711,223.158 108.711 C 223.261 108.711,223.345 108.593,223.345 108.449 C 223.345 108.306,223.463 108.188,223.606 108.188 C 223.769 108.188,223.868 108.024,223.868 107.753 C 223.868 107.513,223.946 107.317,224.042 107.317 C 224.138 107.317,224.216 107.199,224.216 107.056 C 224.216 106.912,224.334 106.794,224.477 106.794 C 224.640 106.794,224.739 106.630,224.739 106.359 C 224.739 106.119,224.817 105.923,224.913 105.923 C 225.009 105.923,225.087 105.727,225.087 105.488 C 225.087 105.217,225.186 105.052,225.348 105.052 C 225.508 105.052,225.610 104.890,225.610 104.635 C 225.610 104.406,225.727 104.173,225.871 104.118 C 226.035 104.055,226.132 103.789,226.132 103.403 C 226.132 103.064,226.211 102.787,226.307 102.787 C 226.405 102.787,226.481 102.294,226.481 101.655 C 226.481 100.765,226.537 100.523,226.742 100.523 C 226.963 100.523,227.003 100.106,227.003 97.822 C 227.003 95.538,226.963 95.122,226.742 95.122 C 226.537 95.122,226.481 94.880,226.481 93.990 C 226.481 93.351,226.405 92.857,226.307 92.857 C 226.211 92.857,226.132 92.580,226.132 92.242 C 226.132 91.856,226.035 91.589,225.871 91.526 C 225.727 91.471,225.610 91.239,225.610 91.009 C 225.610 90.755,225.508 90.592,225.348 90.592 C 225.188 90.592,225.087 90.429,225.087 90.167 C 225.087 89.933,225.009 89.693,224.913 89.634 C 224.817 89.575,224.739 89.385,224.739 89.213 C 224.739 89.040,224.543 88.752,224.303 88.572 C 224.064 88.392,223.868 88.146,223.868 88.025 C 223.868 87.904,223.750 87.805,223.606 87.805 C 223.444 87.805,223.345 87.640,223.345 87.369 C 223.345 87.098,223.246 86.934,223.084 86.934 C 222.940 86.934,222.822 86.850,222.822 86.747 C 222.822 86.506,222.379 86.063,222.138 86.063 C 222.035 86.063,221.951 85.945,221.951 85.801 C 221.951 85.658,221.834 85.540,221.690 85.540 C 221.546 85.540,221.429 85.467,221.429 85.378 C 221.429 85.288,221.256 85.160,221.045 85.093 C 220.596 84.951,220.209 84.599,220.209 84.333 C 220.209 84.230,220.091 84.146,219.948 84.146 C 219.804 84.146,219.686 84.068,219.686 83.972 C 219.686 83.876,219.490 83.798,219.251 83.798 C 218.980 83.798,218.815 83.699,218.815 83.537 C 218.815 83.377,218.653 83.275,218.398 83.275 C 218.169 83.275,217.936 83.158,217.881 83.014 C 217.826 82.870,217.583 82.753,217.340 82.753 C 217.097 82.753,216.899 82.674,216.899 82.578 C 216.899 82.483,216.633 82.404,216.308 82.404 C 215.943 82.404,215.678 82.304,215.616 82.143 C 215.543 81.951,215.239 81.882,214.465 81.882 C 213.881 81.882,213.415 81.804,213.415 81.707 C 213.415 81.593,209.814 81.533,202.962 81.533 L 192.509 81.533 192.509 105.052 M231.533 105.052 L 231.533 128.571 237.195 128.571 L 242.857 128.571 242.857 119.512 L 242.857 110.453 249.652 110.453 L 256.446 110.453 256.446 119.512 L 256.446 128.571 262.108 128.571 L 267.770 128.571 267.770 105.052 L 267.770 81.533 262.108 81.533 L 256.446 81.533 256.446 90.331 L 256.446 99.129 249.652 99.129 L 242.857 99.129 242.857 90.331 L 242.857 81.533 237.195 81.533 L 231.533 81.533 231.533 105.052 M326.307 105.052 L 326.307 128.571 331.969 128.571 L 337.631 128.571 337.631 116.812 C 337.631 108.566,337.686 105.052,337.817 105.052 C 338.112 105.052,338.502 105.519,338.502 105.872 C 338.502 106.201,339.064 106.794,339.375 106.794 C 339.470 106.794,339.547 106.990,339.547 107.230 C 339.547 107.470,339.625 107.666,339.721 107.666 C 339.817 107.666,339.895 107.783,339.895 107.927 C 339.895 108.071,340.013 108.188,340.157 108.188 C 340.307 108.188,340.418 108.346,340.418 108.560 C 340.418 108.765,340.614 109.114,340.854 109.336 C 341.093 109.558,341.289 109.822,341.289 109.922 C 341.289 110.022,341.407 110.105,341.551 110.105 C 341.699 110.105,341.812 110.261,341.812 110.465 C 341.812 110.851,342.189 111.324,342.496 111.324 C 342.599 111.324,342.683 111.520,342.683 111.760 C 342.683 111.999,342.761 112.195,342.857 112.195 C 342.953 112.195,343.031 112.313,343.031 112.456 C 343.031 112.600,343.149 112.718,343.293 112.718 C 343.455 112.718,343.554 112.882,343.554 113.153 C 343.554 113.424,343.653 113.589,343.815 113.589 C 343.959 113.589,344.077 113.706,344.077 113.850 C 344.077 113.994,344.155 114.111,344.251 114.111 C 344.347 114.111,344.425 114.229,344.425 114.373 C 344.425 114.517,344.543 114.634,344.686 114.634 C 344.835 114.634,344.948 114.790,344.948 114.995 C 344.948 115.381,345.325 115.854,345.632 115.854 C 345.735 115.854,345.819 116.050,345.819 116.289 C 345.819 116.560,345.918 116.725,346.080 116.725 C 346.224 116.725,346.341 116.842,346.341 116.986 C 346.341 117.130,346.420 117.247,346.516 117.247 C 346.611 117.247,346.690 117.407,346.690 117.601 C 346.690 117.796,346.807 118.000,346.951 118.055 C 347.095 118.111,347.213 118.236,347.213 118.335 C 347.213 118.433,347.409 118.696,347.648 118.918 C 347.888 119.140,348.084 119.432,348.084 119.567 C 348.084 119.701,348.280 119.959,348.519 120.139 C 348.759 120.319,348.955 120.607,348.955 120.779 C 348.955 120.950,349.072 121.136,349.216 121.191 C 349.360 121.247,349.477 121.401,349.477 121.534 C 349.477 121.668,349.595 121.777,349.739 121.777 C 349.901 121.777,350.000 121.942,350.000 122.213 C 350.000 122.452,350.078 122.648,350.174 122.648 C 350.270 122.648,350.348 122.766,350.348 122.909 C 350.348 123.053,350.466 123.171,350.610 123.171 C 350.753 123.171,350.871 123.288,350.871 123.432 C 350.871 123.576,350.949 123.693,351.045 123.693 C 351.141 123.693,351.220 123.833,351.220 124.003 C 351.220 124.322,351.787 124.913,352.093 124.913 C 352.187 124.913,352.265 125.109,352.265 125.348 C 352.265 125.588,352.343 125.784,352.439 125.784 C 352.535 125.784,352.613 125.902,352.613 126.045 C 352.613 126.189,352.731 126.307,352.875 126.307 C 353.018 126.307,353.136 126.424,353.136 126.568 C 353.136 126.712,353.214 126.829,353.310 126.829 C 353.406 126.829,353.484 126.989,353.484 127.183 C 353.484 127.378,353.602 127.582,353.746 127.637 C 353.889 127.693,354.007 127.847,354.007 127.980 C 354.007 128.114,354.125 128.223,354.268 128.223 C 354.412 128.223,354.530 128.301,354.530 128.397 C 354.530 128.509,356.127 128.571,358.972 128.571 L 363.415 128.571 363.415 105.052 L 363.415 81.533 357.840 81.533 L 352.265 81.533 352.265 93.741 C 352.265 104.592,352.236 105.919,352.003 105.687 C 351.860 105.543,351.742 105.300,351.742 105.146 C 351.742 104.993,351.625 104.822,351.481 104.767 C 351.337 104.712,351.220 104.557,351.220 104.424 C 351.220 104.290,351.141 104.181,351.045 104.181 C 350.949 104.181,350.871 104.064,350.871 103.920 C 350.871 103.776,350.753 103.659,350.610 103.659 C 350.447 103.659,350.348 103.494,350.348 103.223 C 350.348 102.952,350.250 102.787,350.087 102.787 C 349.943 102.787,349.826 102.670,349.826 102.526 C 349.826 102.382,349.747 102.265,349.652 102.265 C 349.556 102.265,349.477 102.119,349.477 101.941 C 349.477 101.763,349.286 101.473,349.052 101.298 C 348.819 101.122,348.582 100.797,348.526 100.576 C 348.471 100.355,348.349 100.174,348.255 100.174 C 348.161 100.174,348.084 100.057,348.084 99.913 C 348.084 99.769,347.966 99.652,347.822 99.652 C 347.679 99.652,347.561 99.534,347.561 99.390 C 347.561 99.247,347.483 99.129,347.387 99.129 C 347.291 99.129,347.213 98.933,347.213 98.693 C 347.213 98.422,347.114 98.258,346.951 98.258 C 346.807 98.258,346.690 98.140,346.690 97.997 C 346.690 97.853,346.611 97.735,346.516 97.735 C 346.420 97.735,346.341 97.596,346.341 97.425 C 346.341 97.107,345.774 96.516,345.468 96.516 C 345.374 96.516,345.296 96.320,345.296 96.080 C 345.296 95.841,345.218 95.645,345.122 95.645 C 345.026 95.645,344.948 95.527,344.948 95.383 C 344.948 95.240,344.830 95.122,344.686 95.122 C 344.543 95.122,344.425 95.004,344.425 94.861 C 344.425 94.717,344.347 94.599,344.251 94.599 C 344.155 94.599,344.077 94.440,344.077 94.245 C 344.077 94.051,343.959 93.846,343.815 93.791 C 343.672 93.736,343.554 93.582,343.554 93.448 C 343.554 93.315,343.436 93.206,343.293 93.206 C 343.149 93.206,343.029 93.068,343.026 92.901 C 343.019 92.524,342.627 91.986,342.359 91.986 C 342.250 91.986,342.160 91.801,342.160 91.575 C 342.160 91.340,341.974 91.024,341.725 90.837 C 341.485 90.657,341.289 90.411,341.289 90.290 C 341.289 90.169,341.172 90.070,341.028 90.070 C 340.865 90.070,340.767 89.905,340.767 89.634 C 340.767 89.395,340.688 89.199,340.592 89.199 C 340.497 89.199,340.418 89.081,340.418 88.937 C 340.418 88.794,340.301 88.676,340.157 88.676 C 340.010 88.676,339.895 88.520,339.895 88.322 C 339.895 88.127,339.778 87.923,339.634 87.868 C 339.490 87.813,339.373 87.658,339.373 87.525 C 339.373 87.391,339.294 87.282,339.199 87.282 C 339.103 87.282,339.024 87.136,339.024 86.958 C 339.024 86.780,338.828 86.487,338.589 86.307 C 338.349 86.127,338.153 85.881,338.153 85.760 C 338.153 85.639,338.036 85.540,337.892 85.540 C 337.729 85.540,337.631 85.376,337.631 85.105 C 337.631 84.834,337.532 84.669,337.369 84.669 C 337.226 84.669,337.108 84.551,337.108 84.408 C 337.108 84.264,337.030 84.146,336.934 84.146 C 336.838 84.146,336.760 83.987,336.760 83.792 C 336.760 83.598,336.642 83.393,336.498 83.338 C 336.355 83.283,336.237 83.129,336.237 82.995 C 336.237 82.862,336.164 82.753,336.074 82.753 C 335.985 82.753,335.857 82.580,335.790 82.369 C 335.528 81.542,335.476 81.533,330.762 81.533 L 326.307 81.533 326.307 105.052 M370.383 105.052 L 370.383 128.571 385.192 128.571 L 400.000 128.571 400.000 123.171 L 400.000 117.770 390.854 117.770 L 381.707 117.770 381.707 114.111 L 381.707 110.453 389.808 110.453 L 397.909 110.453 397.909 105.052 L 397.909 99.652 389.808 99.652 L 381.707 99.652 381.707 96.256 L 381.707 92.860 390.723 92.815 L 399.739 92.770 399.785 87.152 L 399.831 81.533 385.107 81.533 L 370.383 81.533 370.383 105.052 M299.652 92.073 C 299.652 92.271,299.864 92.334,300.523 92.334 C 301.181 92.334,301.394 92.398,301.394 92.596 C 301.394 92.758,301.558 92.857,301.829 92.857 C 302.069 92.857,302.265 92.936,302.265 93.031 C 302.265 93.127,302.452 93.206,302.682 93.206 C 302.911 93.206,303.144 93.323,303.199 93.467 C 303.254 93.611,303.458 93.728,303.653 93.728 C 303.848 93.728,304.321 94.042,304.704 94.425 C 305.087 94.808,305.518 95.122,305.662 95.122 C 305.806 95.122,305.923 95.200,305.923 95.296 C 305.923 95.392,306.041 95.470,306.185 95.470 C 306.328 95.470,306.446 95.588,306.446 95.732 C 306.446 95.875,306.524 95.993,306.620 95.993 C 306.716 95.993,306.794 96.152,306.794 96.347 C 306.794 96.542,306.897 96.740,307.023 96.788 C 307.148 96.837,307.478 97.265,307.756 97.741 C 308.034 98.217,308.362 98.606,308.486 98.606 C 308.632 98.606,308.711 98.850,308.711 99.303 C 308.711 99.686,308.789 100.000,308.885 100.000 C 308.981 100.000,309.059 100.196,309.059 100.436 C 309.059 100.707,309.158 100.871,309.321 100.871 C 309.526 100.871,309.582 101.113,309.582 102.003 C 309.582 102.642,309.658 103.136,309.756 103.136 C 309.863 103.136,309.930 103.949,309.930 105.226 C 309.930 106.504,309.863 107.317,309.756 107.317 C 309.660 107.317,309.582 107.701,309.582 108.170 C 309.582 108.767,309.504 109.052,309.321 109.122 C 309.157 109.185,309.059 109.452,309.059 109.838 C 309.059 110.176,308.981 110.453,308.885 110.453 C 308.789 110.453,308.711 110.641,308.711 110.870 C 308.711 111.099,308.593 111.332,308.449 111.387 C 308.306 111.442,308.188 111.677,308.188 111.910 C 308.188 112.142,308.071 112.377,307.927 112.432 C 307.783 112.487,307.666 112.692,307.666 112.887 C 307.666 113.081,307.587 113.240,307.491 113.240 C 307.395 113.240,307.317 113.358,307.317 113.502 C 307.317 113.645,307.233 113.763,307.130 113.763 C 306.889 113.763,306.446 114.206,306.446 114.447 C 306.446 114.550,306.362 114.634,306.258 114.634 C 306.015 114.634,305.052 115.596,305.052 115.840 C 305.052 115.943,304.935 116.028,304.791 116.028 C 304.647 116.028,304.530 116.106,304.530 116.202 C 304.530 116.298,304.334 116.376,304.094 116.376 C 303.823 116.376,303.659 116.475,303.659 116.638 C 303.659 116.800,303.494 116.899,303.223 116.899 C 302.983 116.899,302.787 116.977,302.787 117.073 C 302.787 117.169,302.628 117.247,302.434 117.247 C 302.239 117.247,302.035 117.365,301.979 117.509 C 301.914 117.679,301.643 117.770,301.201 117.770 C 300.714 117.770,300.523 117.844,300.523 118.031 C 300.523 118.237,300.281 118.293,299.390 118.293 C 298.751 118.293,298.258 118.369,298.258 118.467 C 298.258 118.566,297.735 118.641,297.038 118.641 C 296.341 118.641,295.819 118.566,295.819 118.467 C 295.819 118.370,295.352 118.293,294.768 118.293 C 293.995 118.293,293.691 118.224,293.617 118.031 C 293.556 117.872,293.292 117.770,292.944 117.770 C 292.596 117.770,292.332 117.668,292.271 117.509 C 292.216 117.365,291.973 117.247,291.730 117.247 C 291.488 117.247,291.289 117.169,291.289 117.073 C 291.289 116.977,291.093 116.899,290.854 116.899 C 290.583 116.899,290.418 116.800,290.418 116.638 C 290.418 116.494,290.264 116.376,290.076 116.376 C 289.732 116.376,286.934 113.735,286.934 113.410 C 286.934 113.317,286.816 113.240,286.672 113.240 C 286.526 113.240,286.411 113.085,286.411 112.887 C 286.411 112.692,286.294 112.487,286.150 112.432 C 286.006 112.377,285.889 112.144,285.889 111.915 C 285.889 111.686,285.810 111.498,285.714 111.498 C 285.618 111.498,285.540 111.300,285.540 111.057 C 285.540 110.815,285.422 110.571,285.279 110.516 C 285.135 110.461,285.017 110.228,285.017 109.999 C 285.017 109.744,284.916 109.582,284.756 109.582 C 284.559 109.582,284.495 109.369,284.495 108.711 C 284.495 108.232,284.416 107.840,284.321 107.840 C 284.212 107.840,284.146 106.882,284.146 105.314 C 284.146 103.746,284.212 102.787,284.321 102.787 C 284.416 102.787,284.495 102.356,284.495 101.829 C 284.495 101.094,284.555 100.871,284.756 100.871 C 284.937 100.871,285.017 100.689,285.017 100.280 C 285.017 99.915,285.118 99.650,285.279 99.589 C 285.422 99.533,285.540 99.290,285.540 99.047 C 285.540 98.805,285.618 98.606,285.714 98.606 C 285.810 98.606,285.889 98.410,285.889 98.171 C 285.889 97.931,285.974 97.735,286.078 97.735 C 286.322 97.735,286.920 97.021,286.928 96.721 C 286.935 96.442,287.361 95.993,287.618 95.993 C 287.721 95.993,287.805 95.909,287.805 95.806 C 287.805 95.565,288.248 95.122,288.489 95.122 C 288.592 95.122,288.676 95.004,288.676 94.861 C 288.676 94.714,288.831 94.599,289.030 94.599 C 289.225 94.599,289.429 94.482,289.484 94.338 C 289.539 94.194,289.694 94.077,289.827 94.077 C 289.960 94.077,290.070 93.998,290.070 93.902 C 290.070 93.807,290.229 93.728,290.424 93.728 C 290.618 93.728,290.823 93.611,290.878 93.467 C 290.933 93.323,291.166 93.206,291.395 93.206 C 291.624 93.206,291.812 93.127,291.812 93.031 C 291.812 92.936,292.008 92.857,292.247 92.857 C 292.518 92.857,292.683 92.758,292.683 92.596 C 292.683 92.398,292.896 92.334,293.559 92.334 C 294.178 92.334,294.466 92.258,294.536 92.073 C 294.619 91.858,295.076 91.812,297.144 91.812 C 299.257 91.812,299.652 91.853,299.652 92.073 M211.672 92.596 C 211.672 92.758,211.837 92.857,212.108 92.857 C 212.348 92.857,212.544 92.936,212.544 93.031 C 212.544 93.127,212.740 93.206,212.979 93.206 C 213.250 93.206,213.415 93.304,213.415 93.467 C 213.415 93.611,213.499 93.728,213.601 93.728 C 213.842 93.728,214.286 94.171,214.286 94.413 C 214.286 94.515,214.403 94.599,214.547 94.599 C 214.710 94.599,214.808 94.764,214.808 95.035 C 214.808 95.274,214.887 95.470,214.983 95.470 C 215.078 95.470,215.157 95.784,215.157 96.167 C 215.157 96.671,215.229 96.864,215.418 96.864 C 215.619 96.864,215.679 97.087,215.679 97.822 C 215.679 98.558,215.619 98.780,215.418 98.780 C 215.236 98.780,215.157 98.963,215.157 99.380 C 215.157 99.710,215.078 100.028,214.983 100.087 C 214.887 100.146,214.808 100.386,214.808 100.620 C 214.808 100.858,214.706 101.045,214.576 101.045 C 214.449 101.045,214.240 101.241,214.111 101.481 C 213.983 101.720,213.803 101.916,213.710 101.916 C 213.617 101.916,213.360 102.112,213.138 102.352 C 212.916 102.591,212.574 102.787,212.378 102.787 C 212.177 102.787,212.021 102.902,212.021 103.049 C 212.021 103.274,211.450 103.310,207.927 103.310 L 203.833 103.310 203.833 97.822 L 203.833 92.334 207.753 92.334 C 211.121 92.334,211.672 92.371,211.672 92.596 M31.359 97.710 C 31.359 97.793,32.005 98.439,32.794 99.148 C 33.583 99.856,34.407 100.624,34.625 100.855 C 35.142 101.402,35.159 101.369,35.207 99.746 L 35.247 98.363 33.873 98.131 C 33.117 98.003,32.422 97.823,32.329 97.730 C 32.120 97.521,31.359 97.506,31.359 97.710 M50.480 106.923 C 48.939 107.888,49.335 110.869,51.050 111.212 C 52.110 111.424,65.717 111.321,66.370 111.096 C 67.843 110.589,68.255 108.418,67.098 107.262 L 66.544 106.707 58.751 106.665 C 51.641 106.627,50.916 106.650,50.480 106.923 " stroke="none" fill="#546473" fill-rule="evenodd"></path><path id="path1" d="M106.969 10.676 C 106.737 11.018,106.717 16.577,106.794 58.972 L 106.882 106.882 106.969 72.997 L 107.056 39.111 107.578 38.167 C 110.339 33.179,117.271 33.339,119.786 38.448 L 120.284 39.460 120.402 49.390 C 120.524 59.621,120.570 60.319,121.349 63.824 C 121.874 66.180,124.450 73.250,125.451 75.080 C 125.531 75.228,126.112 76.446,126.740 77.787 C 127.369 79.129,127.953 80.352,128.038 80.505 C 128.682 81.663,130.318 86.185,130.679 87.805 C 130.775 88.236,130.927 88.902,131.016 89.286 C 131.532 91.491,131.915 94.810,132.003 97.822 C 132.097 101.059,132.027 102.274,131.441 107.578 C 131.293 108.920,131.102 110.723,131.018 111.585 C 130.934 112.448,130.772 114.094,130.659 115.244 C 130.241 119.476,130.743 123.389,132.070 126.243 C 132.343 126.831,132.849 128.085,133.194 129.030 C 133.539 129.976,133.892 130.906,133.978 131.098 C 134.064 131.289,134.769 133.132,135.546 135.192 C 136.923 138.846,137.282 139.784,137.715 140.854 C 137.832 141.141,138.026 141.651,138.146 141.986 C 138.267 142.321,138.547 143.066,138.767 143.641 C 138.988 144.216,139.495 145.549,139.893 146.603 C 141.137 149.897,141.547 150.779,141.862 150.839 C 142.042 150.874,142.160 150.788,142.160 150.623 C 142.160 150.472,142.244 150.348,142.347 150.348 C 142.588 150.348,143.031 149.905,143.031 149.664 C 143.031 149.561,143.149 149.477,143.293 149.477 C 143.436 149.477,143.554 149.373,143.554 149.245 C 143.554 149.118,143.750 148.909,143.990 148.780 C 144.229 148.652,144.425 148.443,144.425 148.316 C 144.425 148.188,144.543 148.084,144.686 148.084 C 144.830 148.084,144.948 148.021,144.948 147.945 C 144.948 147.729,146.292 146.341,146.502 146.341 C 146.605 146.341,146.690 146.224,146.690 146.080 C 146.690 145.936,146.756 145.819,146.836 145.819 C 146.916 145.819,147.132 145.506,147.315 145.124 C 147.498 144.742,147.713 144.428,147.792 144.427 C 148.005 144.424,148.955 143.437,148.955 143.219 C 148.955 143.116,149.028 143.031,149.117 143.031 C 149.207 143.031,149.332 142.867,149.396 142.666 C 149.460 142.465,149.818 141.994,150.191 141.620 C 150.565 141.247,150.871 140.823,150.871 140.679 C 150.871 140.536,150.949 140.418,151.045 140.418 C 151.141 140.418,151.220 140.301,151.220 140.157 C 151.220 140.013,151.309 139.895,151.418 139.895 C 151.665 139.895,152.078 139.368,152.085 139.043 C 152.088 138.910,152.326 138.576,152.613 138.301 C 152.901 138.027,153.136 137.685,153.136 137.542 C 153.136 137.399,153.214 137.282,153.310 137.282 C 153.406 137.282,153.484 137.165,153.484 137.021 C 153.484 136.877,153.554 136.760,153.640 136.760 C 153.725 136.760,153.844 136.564,153.904 136.324 C 153.964 136.084,154.091 135.889,154.185 135.889 C 154.278 135.889,154.355 135.727,154.355 135.530 C 154.355 135.332,154.428 135.216,154.517 135.271 C 154.606 135.326,154.734 135.193,154.802 134.976 C 154.870 134.759,155.007 134.529,155.107 134.465 C 155.207 134.401,155.310 134.206,155.335 134.033 C 155.361 133.859,155.464 133.690,155.565 133.656 C 155.666 133.622,155.749 133.484,155.749 133.348 C 155.749 133.212,155.812 133.101,155.890 133.101 C 156.044 133.101,156.620 131.887,156.620 131.562 C 156.620 131.450,156.738 131.359,156.882 131.359 C 157.041 131.359,157.143 131.196,157.143 130.942 C 157.143 130.713,157.260 130.480,157.404 130.425 C 157.548 130.370,157.666 130.126,157.666 129.884 C 157.666 129.641,157.744 129.443,157.840 129.443 C 157.936 129.443,158.014 129.335,158.014 129.203 C 158.014 129.071,158.132 128.865,158.275 128.746 C 158.419 128.626,158.537 128.342,158.537 128.115 C 158.537 127.887,158.615 127.700,158.711 127.700 C 158.807 127.700,158.885 127.589,158.885 127.454 C 158.885 127.318,158.947 127.181,159.023 127.149 C 159.247 127.055,159.930 125.629,159.930 125.256 C 159.930 125.067,160.009 124.913,160.105 124.913 C 160.200 124.913,160.279 124.717,160.279 124.477 C 160.279 124.206,160.377 124.042,160.540 124.042 C 160.701 124.042,160.801 123.878,160.801 123.617 C 160.801 123.383,160.880 123.143,160.976 123.084 C 161.071 123.024,161.150 122.706,161.150 122.376 C 161.150 121.960,161.229 121.777,161.411 121.777 C 161.564 121.777,161.675 121.615,161.678 121.385 C 161.681 121.169,161.799 120.841,161.939 120.655 C 162.080 120.469,162.195 120.136,162.195 119.914 C 162.195 119.693,162.274 119.512,162.369 119.512 C 162.465 119.512,162.544 119.207,162.544 118.834 C 162.544 118.392,162.635 118.121,162.805 118.055 C 162.956 117.997,163.066 117.737,163.066 117.437 C 163.066 117.153,163.145 116.871,163.240 116.812 C 163.336 116.753,163.415 116.443,163.415 116.123 C 163.415 115.768,163.516 115.504,163.676 115.442 C 163.854 115.374,163.937 115.095,163.937 114.567 C 163.937 114.141,164.021 113.764,164.123 113.730 C 164.225 113.696,164.353 113.337,164.407 112.932 C 164.461 112.527,164.574 112.195,164.657 112.195 C 164.740 112.195,164.808 111.812,164.808 111.343 C 164.808 110.773,164.889 110.459,165.052 110.397 C 165.299 110.302,165.431 109.557,165.614 107.230 C 165.676 106.444,165.798 105.961,165.956 105.871 C 166.122 105.777,166.204 105.407,166.208 104.739 C 166.211 104.143,166.316 103.610,166.469 103.407 C 166.635 103.188,166.725 102.658,166.725 101.893 C 166.725 101.247,166.803 100.669,166.899 100.610 C 167.139 100.462,167.139 81.246,166.899 81.098 C 166.803 81.038,166.725 80.461,166.725 79.814 C 166.725 79.050,166.635 78.520,166.469 78.300 C 166.316 78.098,166.211 77.566,166.208 76.981 C 166.204 76.354,166.113 75.927,165.955 75.796 C 165.814 75.679,165.669 75.130,165.617 74.512 C 165.441 72.422,165.223 71.189,165.017 71.121 C 164.902 71.082,164.808 70.744,164.808 70.369 C 164.808 69.993,164.740 69.686,164.657 69.686 C 164.573 69.686,164.464 69.317,164.413 68.865 C 164.362 68.413,164.234 68.014,164.129 67.979 C 164.023 67.944,163.937 67.538,163.937 67.077 C 163.937 66.527,163.855 66.208,163.698 66.147 C 163.474 66.061,163.367 65.722,163.126 64.329 C 163.071 64.009,162.923 63.763,162.786 63.763 C 162.611 63.763,162.544 63.520,162.544 62.892 C 162.544 62.413,162.465 62.021,162.369 62.021 C 162.274 62.021,162.195 61.874,162.195 61.694 C 162.195 61.514,162.078 61.269,161.934 61.150 C 161.790 61.031,161.672 60.756,161.672 60.540 C 161.672 60.324,161.555 60.050,161.411 59.930 C 161.267 59.811,161.150 59.492,161.150 59.222 C 161.150 58.952,161.082 58.689,160.998 58.638 C 160.915 58.586,160.798 58.302,160.739 58.006 C 160.679 57.707,160.553 57.517,160.455 57.577 C 160.351 57.642,160.279 57.468,160.279 57.153 C 160.279 56.860,160.207 56.620,160.118 56.620 C 160.030 56.620,159.906 56.385,159.843 56.098 C 159.780 55.810,159.656 55.575,159.568 55.575 C 159.480 55.575,159.408 55.379,159.408 55.139 C 159.408 54.868,159.309 54.704,159.146 54.704 C 158.984 54.704,158.885 54.539,158.885 54.268 C 158.885 54.029,158.807 53.833,158.711 53.833 C 158.615 53.833,158.537 53.637,158.537 53.397 C 158.537 53.126,158.438 52.962,158.275 52.962 C 158.132 52.962,158.014 52.831,158.014 52.672 C 158.014 52.280,157.459 51.045,157.284 51.045 C 157.206 51.045,157.143 50.849,157.143 50.610 C 157.143 50.339,157.044 50.174,156.882 50.174 C 156.738 50.174,156.620 50.057,156.620 49.913 C 156.620 49.769,156.542 49.652,156.446 49.652 C 156.350 49.652,156.272 49.447,156.272 49.197 C 156.272 48.865,156.202 48.770,156.010 48.843 C 155.814 48.919,155.749 48.815,155.749 48.427 C 155.749 48.142,155.679 47.909,155.594 47.909 C 155.508 47.909,155.389 47.713,155.329 47.474 C 155.269 47.234,155.143 47.038,155.049 47.038 C 154.955 47.038,154.878 46.921,154.878 46.777 C 154.878 46.633,154.760 46.516,154.617 46.516 C 154.454 46.516,154.355 46.351,154.355 46.080 C 154.355 45.841,154.286 45.645,154.202 45.645 C 154.117 45.645,154.002 45.507,153.945 45.340 C 153.798 44.902,153.456 44.399,153.005 43.956 C 152.790 43.744,152.613 43.460,152.613 43.325 C 152.613 43.191,152.417 42.933,152.178 42.753 C 151.938 42.573,151.742 42.285,151.742 42.113 C 151.742 41.942,151.625 41.756,151.481 41.701 C 151.337 41.645,151.220 41.520,151.220 41.421 C 151.220 41.323,151.024 41.060,150.784 40.838 C 150.544 40.616,150.348 40.324,150.348 40.190 C 150.348 40.055,150.152 39.797,149.913 39.617 C 149.673 39.437,149.477 39.191,149.477 39.070 C 149.477 38.949,149.360 38.850,149.216 38.850 C 149.072 38.850,148.955 38.733,148.955 38.589 C 148.955 38.445,148.876 38.328,148.780 38.328 C 148.685 38.328,148.606 38.216,148.606 38.079 C 148.606 37.710,148.112 37.282,147.817 37.395 C 147.632 37.466,147.561 37.368,147.561 37.040 C 147.561 36.790,147.483 36.585,147.387 36.585 C 147.291 36.585,147.213 36.468,147.213 36.324 C 147.213 36.180,147.112 36.063,146.989 36.063 C 146.866 36.063,146.617 35.808,146.436 35.497 C 146.255 35.185,145.924 34.758,145.702 34.547 C 145.479 34.336,145.296 34.114,145.296 34.055 C 145.296 33.878,144.812 33.449,144.612 33.449 C 144.509 33.449,144.425 33.365,144.425 33.262 C 144.425 33.018,143.463 32.056,143.219 32.056 C 143.116 32.056,143.031 31.972,143.031 31.869 C 143.031 31.628,142.588 31.185,142.347 31.185 C 142.244 31.185,142.160 31.067,142.160 30.923 C 142.160 30.780,142.076 30.662,141.974 30.662 C 141.732 30.662,141.289 30.219,141.289 29.978 C 141.289 29.875,141.224 29.791,141.144 29.791 C 141.064 29.791,140.659 29.477,140.244 29.094 C 139.829 28.711,139.426 28.397,139.350 28.397 C 139.144 28.397,138.153 27.393,138.153 27.184 C 138.153 27.085,138.036 27.003,137.892 27.003 C 137.748 27.003,137.631 26.925,137.631 26.829 C 137.631 26.733,137.513 26.655,137.369 26.655 C 137.226 26.655,137.108 26.537,137.108 26.394 C 137.108 26.250,136.962 26.132,136.784 26.132 C 136.606 26.132,136.313 25.936,136.133 25.697 C 135.953 25.457,135.707 25.261,135.586 25.261 C 135.465 25.261,135.366 25.144,135.366 25.000 C 135.366 24.856,135.248 24.739,135.105 24.739 C 134.961 24.739,134.843 24.677,134.843 24.602 C 134.843 24.527,134.591 24.316,134.282 24.134 C 133.973 23.952,133.553 23.621,133.347 23.399 C 133.142 23.178,132.807 22.997,132.602 22.997 C 132.387 22.997,132.230 22.886,132.230 22.735 C 132.230 22.591,132.121 22.474,131.987 22.474 C 131.854 22.474,131.702 22.363,131.650 22.228 C 131.598 22.093,131.276 21.881,130.935 21.757 C 130.593 21.634,130.314 21.446,130.314 21.339 C 130.314 21.232,130.039 21.038,129.704 20.906 C 129.368 20.774,129.094 20.604,129.094 20.527 C 129.094 20.451,128.839 20.281,128.528 20.151 C 128.216 20.021,127.854 19.785,127.723 19.626 C 127.591 19.468,127.356 19.337,127.200 19.335 C 127.044 19.333,126.732 19.137,126.506 18.899 C 126.280 18.662,125.956 18.467,125.784 18.467 C 125.613 18.467,125.428 18.349,125.373 18.206 C 125.317 18.062,125.074 17.944,124.831 17.944 C 124.589 17.944,124.410 17.885,124.434 17.814 C 124.458 17.742,124.399 17.646,124.303 17.602 C 124.207 17.557,123.815 17.341,123.432 17.121 C 123.049 16.901,122.598 16.674,122.430 16.616 C 122.263 16.557,122.125 16.441,122.125 16.356 C 122.125 16.271,121.938 16.202,121.709 16.202 C 121.479 16.202,121.247 16.084,121.191 15.941 C 121.136 15.797,120.893 15.679,120.650 15.679 C 120.408 15.679,120.209 15.621,120.208 15.549 C 120.206 15.364,119.193 14.809,118.845 14.803 C 118.685 14.800,118.402 14.682,118.216 14.541 C 118.030 14.401,117.736 14.286,117.563 14.286 C 117.389 14.286,117.247 14.207,117.247 14.111 C 117.247 14.016,117.049 13.937,116.806 13.937 C 116.564 13.937,116.320 13.820,116.265 13.676 C 116.210 13.532,115.977 13.415,115.748 13.415 C 115.519 13.415,115.331 13.343,115.331 13.256 C 115.331 13.168,115.017 13.044,114.634 12.979 C 114.251 12.914,113.937 12.790,113.937 12.702 C 113.937 12.615,113.747 12.544,113.514 12.544 C 113.281 12.544,112.973 12.426,112.830 12.282 C 112.686 12.139,112.367 12.021,112.120 12.021 C 111.874 12.021,111.672 11.943,111.672 11.847 C 111.672 11.751,111.406 11.672,111.081 11.672 C 110.717 11.672,110.452 11.572,110.390 11.411 C 110.327 11.247,110.061 11.150,109.674 11.150 C 109.336 11.150,109.059 11.078,109.059 10.991 C 109.059 10.904,108.746 10.779,108.363 10.714 C 107.981 10.650,107.623 10.525,107.569 10.438 C 107.416 10.191,107.253 10.256,106.969 10.676 M25.999 29.761 C 25.210 30.535,24.564 31.233,24.564 31.313 C 24.564 31.469,27.433 34.146,27.600 34.146 C 27.739 34.146,27.693 29.278,27.550 28.768 C 27.441 28.379,27.351 28.436,25.999 29.761 M50.932 43.044 C 49.085 43.592,48.589 46.222,50.086 47.536 C 50.930 48.278,50.993 48.282,59.073 48.224 L 66.317 48.171 66.932 47.701 C 68.475 46.524,68.467 44.464,66.915 43.470 C 66.226 43.029,52.240 42.656,50.932 43.044 M66.673 43.547 C 68.125 44.432,68.161 46.555,66.740 47.512 L 66.151 47.909 58.676 47.909 C 52.407 47.909,51.122 47.868,50.702 47.651 C 49.124 46.835,49.051 44.476,50.575 43.547 C 51.439 43.020,65.808 43.020,66.673 43.547 M13.720 44.265 C 13.552 44.449,13.415 44.709,13.415 44.842 C 13.415 44.975,13.304 45.127,13.169 45.179 C 13.033 45.231,12.822 45.553,12.698 45.895 C 12.575 46.236,12.415 46.516,12.343 46.516 C 12.270 46.516,12.075 46.810,11.908 47.169 C 11.741 47.528,11.502 47.885,11.377 47.962 C 11.252 48.038,11.150 48.245,11.150 48.422 C 11.150 48.599,11.027 48.790,10.877 48.848 C 10.728 48.905,10.650 49.025,10.705 49.114 C 10.760 49.202,10.686 49.393,10.542 49.538 C 10.397 49.683,10.279 49.847,10.279 49.904 C 10.279 49.961,10.083 50.317,9.843 50.697 C 9.604 51.076,9.408 51.537,9.408 51.720 C 9.408 51.903,9.290 52.098,9.146 52.154 C 9.003 52.209,8.885 52.405,8.885 52.589 C 8.885 52.774,8.767 52.970,8.624 53.025 C 8.480 53.080,8.362 53.284,8.362 53.479 C 8.362 53.673,8.284 53.833,8.188 53.833 C 8.092 53.833,8.014 54.029,8.014 54.268 C 8.014 54.508,7.951 54.704,7.873 54.704 C 7.682 54.704,7.143 55.955,7.143 56.399 C 7.143 56.596,7.025 56.802,6.882 56.857 C 6.738 56.913,6.620 57.148,6.620 57.380 C 6.620 57.612,6.503 57.848,6.359 57.903 C 6.215 57.958,6.098 58.201,6.098 58.444 C 6.098 58.687,6.019 58.885,5.923 58.885 C 5.828 58.885,5.749 59.151,5.749 59.476 C 5.749 59.841,5.649 60.106,5.488 60.168 C 5.344 60.223,5.226 60.466,5.226 60.709 C 5.226 60.951,5.149 61.150,5.054 61.150 C 4.960 61.150,4.832 61.463,4.771 61.847 C 4.709 62.230,4.591 62.544,4.507 62.544 C 4.424 62.544,4.355 62.810,4.355 63.135 C 4.355 63.499,4.255 63.764,4.094 63.826 C 3.930 63.889,3.833 64.155,3.833 64.542 C 3.833 64.880,3.754 65.157,3.659 65.157 C 3.563 65.157,3.484 65.470,3.484 65.854 C 3.484 66.357,3.412 66.551,3.223 66.551 C 3.031 66.551,2.962 66.751,2.962 67.313 C 2.962 67.779,2.860 68.160,2.700 68.293 C 2.557 68.412,2.439 68.770,2.439 69.088 C 2.439 69.406,2.361 69.714,2.265 69.774 C 2.169 69.833,2.091 70.220,2.091 70.634 C 2.091 71.090,1.988 71.471,1.829 71.603 C 1.657 71.746,1.568 72.135,1.568 72.746 C 1.568 73.256,1.490 73.721,1.394 73.780 C 1.298 73.840,1.220 74.385,1.220 74.992 C 1.220 75.812,1.152 76.121,0.958 76.195 C 0.764 76.270,0.697 76.579,0.697 77.399 C 0.697 78.005,0.613 78.586,0.510 78.688 C -0.118 79.317,-0.227 101.563,0.393 102.771 C 0.579 103.133,0.697 103.755,0.697 104.370 C 0.697 105.001,0.788 105.467,0.941 105.620 C 1.076 105.755,1.231 106.329,1.286 106.896 C 1.539 109.492,1.615 109.927,1.845 110.118 C 1.985 110.233,2.091 110.635,2.091 111.049 C 2.091 111.449,2.162 111.851,2.249 111.943 C 2.335 112.034,2.447 112.420,2.496 112.800 C 2.545 113.181,2.670 113.521,2.774 113.555 C 2.877 113.590,2.962 113.956,2.962 114.369 C 2.962 114.875,3.047 115.152,3.223 115.220 C 3.386 115.282,3.484 115.548,3.484 115.925 C 3.484 116.258,3.563 116.578,3.659 116.638 C 3.754 116.697,3.833 116.970,3.833 117.245 C 3.833 117.520,3.950 117.863,4.094 118.006 C 4.238 118.150,4.358 118.489,4.361 118.759 C 4.364 119.030,4.479 119.400,4.617 119.581 C 4.754 119.763,4.825 119.979,4.774 120.062 C 4.723 120.144,4.804 120.259,4.954 120.316 C 5.128 120.383,5.226 120.637,5.226 121.017 C 5.226 121.387,5.326 121.652,5.488 121.714 C 5.632 121.769,5.749 121.928,5.749 122.068 C 5.749 122.510,6.305 124.042,6.466 124.042 C 6.551 124.042,6.620 124.238,6.620 124.477 C 6.620 124.748,6.719 124.913,6.882 124.913 C 7.042 124.913,7.143 125.076,7.143 125.338 C 7.143 125.572,7.221 125.812,7.317 125.871 C 7.413 125.930,7.491 126.170,7.491 126.404 C 7.491 126.666,7.592 126.829,7.753 126.829 C 7.915 126.829,8.014 126.994,8.014 127.265 C 8.014 127.504,8.092 127.700,8.188 127.700 C 8.284 127.700,8.362 127.888,8.362 128.117 C 8.362 128.347,8.480 128.579,8.624 128.634 C 8.767 128.690,8.885 128.894,8.885 129.089 C 8.885 129.287,9.000 129.443,9.146 129.443 C 9.321 129.443,9.408 129.617,9.408 129.965 C 9.408 130.253,9.486 130.488,9.582 130.488 C 9.678 130.488,9.756 130.647,9.756 130.842 C 9.756 131.036,9.874 131.241,10.017 131.296 C 10.161 131.351,10.279 131.510,10.279 131.648 C 10.279 131.787,10.475 132.188,10.714 132.541 C 10.954 132.893,11.150 133.281,11.150 133.403 C 11.150 133.524,11.267 133.624,11.411 133.624 C 11.574 133.624,11.672 133.788,11.672 134.059 C 11.672 134.299,11.742 134.495,11.826 134.495 C 11.911 134.495,12.026 134.632,12.083 134.800 C 12.182 135.096,12.542 135.712,12.718 135.889 C 12.894 136.065,13.253 136.681,13.353 136.977 C 13.409 137.145,13.564 137.282,13.696 137.282 C 13.829 137.282,13.937 137.428,13.937 137.605 C 13.937 137.783,14.133 138.140,14.373 138.399 C 14.613 138.657,14.929 139.100,15.075 139.382 C 15.221 139.665,15.416 139.895,15.510 139.895 C 15.603 139.895,15.679 140.013,15.679 140.157 C 15.679 140.301,15.797 140.418,15.941 140.418 C 16.084 140.418,16.202 140.568,16.202 140.752 C 16.202 140.935,16.476 141.368,16.812 141.713 C 17.147 142.058,17.422 142.415,17.422 142.506 C 17.422 142.597,17.657 142.912,17.944 143.206 C 18.232 143.500,18.467 143.782,18.467 143.834 C 18.467 144.000,18.959 144.425,19.151 144.425 C 19.254 144.425,19.338 144.509,19.338 144.612 C 19.338 144.714,19.436 144.908,19.556 145.041 C 20.062 145.606,20.209 145.813,20.209 145.961 C 20.209 146.048,20.405 146.266,20.645 146.446 C 20.884 146.625,21.080 146.872,21.080 146.993 C 21.080 147.114,21.198 147.213,21.341 147.213 C 21.485 147.213,21.603 147.297,21.603 147.399 C 21.603 147.640,22.046 148.084,22.287 148.084 C 22.390 148.084,22.474 148.201,22.474 148.345 C 22.474 148.489,22.558 148.606,22.661 148.606 C 22.902 148.606,23.345 149.049,23.345 149.291 C 23.345 149.393,23.463 149.477,23.606 149.477 C 23.750 149.477,23.868 149.561,23.868 149.664 C 23.868 149.905,24.311 150.348,24.552 150.348 C 24.655 150.348,24.739 150.466,24.739 150.610 C 24.739 150.753,24.823 150.871,24.925 150.871 C 25.167 150.871,25.610 151.314,25.610 151.556 C 25.610 151.658,25.727 151.742,25.871 151.742 C 26.015 151.742,26.132 151.826,26.132 151.929 C 26.132 152.116,26.556 152.613,26.714 152.613 C 26.761 152.613,27.219 153.030,27.732 153.539 C 28.245 154.048,28.918 154.577,29.228 154.714 C 29.538 154.851,29.791 155.043,29.791 155.140 C 29.791 155.238,30.037 155.513,30.337 155.751 C 30.638 155.990,31.008 156.322,31.160 156.490 C 31.312 156.657,31.533 156.794,31.652 156.794 C 31.770 156.794,32.197 157.108,32.599 157.491 C 33.002 157.875,33.437 158.188,33.565 158.188 C 33.693 158.188,33.798 158.267,33.798 158.362 C 33.798 158.458,33.916 158.537,34.059 158.537 C 34.203 158.537,34.321 158.654,34.321 158.798 C 34.321 158.942,34.438 159.059,34.582 159.059 C 34.726 159.059,34.843 159.138,34.843 159.233 C 34.843 159.329,35.039 159.408,35.279 159.408 C 35.518 159.408,35.714 159.496,35.714 159.605 C 35.714 159.864,36.399 160.453,36.699 160.453 C 36.828 160.453,36.934 160.531,36.934 160.627 C 36.934 160.723,37.051 160.801,37.195 160.801 C 37.339 160.801,37.456 160.919,37.456 161.063 C 37.456 161.225,37.621 161.324,37.892 161.324 C 38.132 161.324,38.328 161.402,38.328 161.498 C 38.328 161.594,38.445 161.672,38.589 161.672 C 38.733 161.672,38.850 161.790,38.850 161.934 C 38.850 162.093,39.013 162.195,39.267 162.195 C 39.496 162.195,39.729 162.313,39.784 162.456 C 39.839 162.600,40.044 162.718,40.238 162.718 C 40.433 162.718,40.592 162.796,40.592 162.892 C 40.592 162.988,40.710 163.066,40.854 163.066 C 40.997 163.066,41.115 163.143,41.115 163.237 C 41.115 163.331,41.311 163.457,41.551 163.517 C 41.790 163.577,41.986 163.697,41.986 163.782 C 41.986 163.867,42.182 163.937,42.422 163.937 C 42.661 163.937,42.858 164.035,42.859 164.155 C 42.860 164.275,43.193 164.519,43.600 164.697 C 44.006 164.875,44.474 165.091,44.640 165.176 C 44.807 165.261,45.101 165.331,45.294 165.331 C 45.487 165.331,45.645 165.429,45.646 165.549 C 45.647 165.769,46.409 166.202,46.793 166.202 C 46.907 166.202,47.046 166.320,47.101 166.463 C 47.159 166.613,47.419 166.725,47.711 166.725 C 48.003 166.725,48.263 166.836,48.321 166.986 C 48.376 167.130,48.620 167.247,48.862 167.247 C 49.105 167.247,49.303 167.326,49.303 167.422 C 49.303 167.517,49.499 167.596,49.739 167.596 C 50.010 167.596,50.174 167.695,50.174 167.857 C 50.174 168.031,50.348 168.118,50.697 168.118 C 50.984 168.118,51.220 168.197,51.220 168.293 C 51.220 168.389,51.494 168.467,51.829 168.467 C 52.255 168.467,52.439 168.546,52.439 168.728 C 52.439 168.893,52.605 168.990,52.887 168.990 C 53.133 168.990,53.453 169.107,53.596 169.251 C 53.740 169.395,54.048 169.512,54.281 169.512 C 54.513 169.512,54.704 169.591,54.704 169.686 C 54.704 169.782,55.017 169.861,55.401 169.861 C 55.904 169.861,56.098 169.933,56.098 170.122 C 56.098 170.304,56.280 170.383,56.697 170.383 C 57.027 170.383,57.345 170.462,57.404 170.557 C 57.463 170.653,57.784 170.732,58.117 170.732 C 58.494 170.732,58.760 170.830,58.822 170.993 C 58.887 171.163,59.158 171.254,59.601 171.254 C 59.974 171.254,60.279 171.329,60.279 171.421 C 60.279 171.512,60.573 171.634,60.932 171.692 C 61.291 171.749,61.721 171.870,61.888 171.961 C 62.054 172.051,62.536 172.125,62.958 172.125 C 63.480 172.125,63.758 172.209,63.826 172.387 C 63.897 172.571,64.184 172.648,64.803 172.648 C 65.285 172.648,65.679 172.726,65.679 172.822 C 65.679 172.921,66.173 172.997,66.812 172.997 C 67.702 172.997,67.944 173.052,67.944 173.258 C 67.944 173.469,68.216 173.519,69.348 173.519 C 70.240 173.519,70.713 173.583,70.645 173.693 C 70.585 173.789,70.600 173.874,70.678 173.881 C 70.755 173.888,70.976 173.937,71.167 173.989 C 71.359 174.041,76.387 174.121,82.340 174.166 L 93.164 174.249 92.996 173.318 C 92.239 169.114,89.181 164.782,84.554 161.360 C 80.999 158.731,80.113 158.205,76.742 156.726 C 67.630 152.728,59.144 146.174,54.552 139.591 L 54.157 139.024 46.983 139.012 C 37.987 138.996,36.969 138.898,34.608 137.817 C 32.262 136.742,29.904 134.369,28.879 132.049 C 27.783 129.570,27.696 128.721,27.706 120.648 L 27.715 113.508 26.967 112.806 C 25.652 111.572,21.222 107.461,19.276 105.668 C 15.088 101.809,14.691 97.404,18.246 94.244 C 19.862 92.808,23.857 91.939,24.930 92.790 C 26.112 93.729,26.225 92.967,25.061 91.903 C 16.538 84.110,15.854 83.249,15.854 80.314 C 15.854 75.703,21.082 72.027,25.154 73.775 C 26.160 74.208,26.283 73.867,25.399 73.094 C 24.776 72.549,22.035 70.014,20.207 68.293 C 19.953 68.053,19.313 67.453,18.785 66.958 C 17.139 65.418,16.531 64.496,16.124 62.927 C 14.741 57.592,19.895 52.922,25.219 54.688 C 25.626 54.824,26.012 54.883,26.075 54.819 C 26.195 54.699,26.041 54.546,22.808 51.568 C 21.716 50.562,20.155 49.116,19.340 48.356 C 14.032 43.405,14.316 43.612,13.720 44.265 M35.889 63.769 C 39.255 66.939,40.245 67.966,40.669 68.734 C 41.297 69.870,41.415 69.982,41.681 69.696 C 41.824 69.542,41.829 69.500,41.695 69.576 C 41.570 69.646,41.247 69.288,40.857 68.647 C 40.260 67.664,35.665 63.061,35.144 62.923 C 35.026 62.892,35.361 63.272,35.889 63.769 M50.932 74.750 C 49.085 75.301,48.589 77.930,50.086 79.244 C 50.932 79.986,51.000 79.992,59.073 79.932 L 66.317 79.878 66.932 79.409 C 68.521 78.196,68.418 76.004,66.725 75.010 C 66.048 74.612,52.162 74.384,50.932 74.750 M66.740 75.310 C 68.236 76.318,68.075 78.693,66.465 79.366 C 65.541 79.752,51.431 79.735,50.681 79.347 C 49.110 78.535,49.065 76.175,50.602 75.237 C 51.097 74.936,51.635 74.914,58.641 74.914 L 66.151 74.913 66.740 75.310 M39.795 76.844 C 39.229 77.470,37.921 78.341,37.195 78.577 C 36.812 78.701,36.593 78.835,36.710 78.874 C 37.067 78.994,38.708 78.066,39.578 77.253 C 40.032 76.828,40.340 76.481,40.263 76.481 C 40.187 76.481,39.976 76.644,39.795 76.844 M35.366 79.094 C 35.020 79.318,35.455 79.318,35.976 79.094 L 36.324 78.944 35.976 78.935 C 35.784 78.930,35.510 79.001,35.366 79.094 M35.647 82.673 C 38.366 85.237,40.127 86.842,40.194 86.818 C 40.365 86.755,40.494 86.560,40.328 86.614 C 40.231 86.646,39.407 85.960,38.499 85.088 C 36.321 83.000,35.267 82.056,35.116 82.056 C 35.048 82.056,35.287 82.333,35.647 82.673 M40.670 94.741 C 40.034 95.947,37.580 97.906,36.700 97.910 C 36.293 97.912,35.162 98.286,35.262 98.386 C 35.398 98.523,36.630 98.152,37.765 97.633 C 38.818 97.151,40.066 96.065,40.626 95.144 C 40.837 94.797,41.081 94.463,41.168 94.403 C 41.263 94.338,41.263 94.255,41.167 94.196 C 41.080 94.142,40.856 94.387,40.670 94.741 M35.271 101.364 C 35.344 101.491,35.763 101.922,36.203 102.322 C 36.642 102.722,37.711 103.728,38.578 104.557 C 39.445 105.387,40.209 106.032,40.277 105.990 C 40.389 105.921,39.999 105.541,37.108 102.901 C 35.480 101.415,35.133 101.124,35.271 101.364 M50.775 106.512 C 48.561 107.496,48.702 110.733,50.993 111.478 C 52.133 111.848,65.948 111.677,66.667 111.283 C 68.480 110.292,68.484 107.614,66.674 106.579 C 66.089 106.244,51.516 106.183,50.775 106.512 M67.098 107.262 C 68.255 108.418,67.843 110.589,66.370 111.096 C 65.717 111.321,52.110 111.424,51.050 111.212 C 49.813 110.964,49.106 109.110,49.740 107.775 C 50.300 106.594,50.097 106.619,58.751 106.665 L 66.544 106.707 67.098 107.262 M39.470 115.320 C 38.686 116.124,37.501 116.796,36.365 117.081 C 35.908 117.196,35.495 117.353,35.447 117.431 C 35.085 118.018,38.574 116.442,39.376 115.657 C 39.518 115.518,39.816 115.278,40.039 115.124 C 40.262 114.971,40.372 114.801,40.285 114.747 C 40.198 114.693,39.831 114.951,39.470 115.320 " stroke="none" fill="#8f72e7" fill-rule="evenodd"></path><path id="path2" d="M38.282 7.566 C 37.045 8.008,35.988 9.036,35.540 10.233 C 35.198 11.147,35.192 11.600,35.192 36.993 L 35.192 62.822 37.708 65.214 C 39.334 66.759,40.450 67.976,40.861 68.653 L 41.497 69.701 42.134 69.302 L 42.770 68.904 52.613 68.795 C 58.027 68.734,68.851 68.675,76.668 68.663 C 92.294 68.639,91.825 68.609,92.988 69.697 C 94.229 70.858,94.164 70.186,94.164 81.794 C 94.164 93.172,94.163 93.177,93.336 94.097 C 92.164 95.400,94.418 95.296,67.334 95.296 C 41.181 95.296,42.349 95.334,41.720 94.476 C 41.462 94.124,41.064 94.343,40.687 95.043 C 39.962 96.391,38.263 97.586,36.063 98.297 L 35.279 98.550 35.228 99.851 L 35.178 101.151 35.925 101.828 C 36.336 102.201,37.468 103.235,38.439 104.127 C 40.559 106.073,40.356 106.049,40.454 104.362 C 40.575 102.259,41.121 101.503,43.247 100.492 C 43.413 100.413,54.282 100.348,67.399 100.348 L 91.249 100.348 92.181 100.835 C 92.860 101.190,93.256 101.553,93.638 102.172 L 94.164 103.021 94.164 113.749 C 94.164 126.113,94.268 125.412,92.247 126.675 C 91.486 127.151,43.381 127.192,42.457 126.717 C 40.666 125.798,40.514 125.270,40.451 119.730 C 40.422 117.119,40.343 114.983,40.277 114.983 C 40.211 114.983,39.922 115.189,39.634 115.441 C 39.063 115.942,37.367 117.073,37.187 117.073 C 37.125 117.073,36.651 117.196,36.133 117.347 L 35.192 117.621 35.193 122.617 C 35.194 128.762,35.311 129.262,37.071 130.604 C 38.338 131.571,37.132 131.534,67.477 131.533 L 95.842 131.533 96.708 131.160 C 97.811 130.686,98.819 129.549,99.193 128.358 C 99.459 127.510,99.477 122.961,99.436 69.077 L 99.390 10.714 98.920 9.822 C 97.716 7.541,96.987 7.317,90.778 7.317 C 84.675 7.317,84.044 7.566,83.745 10.092 C 83.599 11.319,83.162 12.149,82.349 12.738 L 81.655 13.240 67.253 13.240 L 52.850 13.240 52.117 12.613 C 51.297 11.911,50.874 11.071,50.865 10.127 C 50.856 9.178,50.132 8.097,49.175 7.602 C 48.435 7.220,39.338 7.190,38.282 7.566 M86.089 22.062 C 88.402 23.732,88.318 26.788,85.912 28.479 L 85.162 29.007 71.497 29.055 C 61.452 29.090,57.733 29.049,57.458 28.902 C 57.212 28.771,56.060 28.710,54.108 28.725 C 51.048 28.749,48.919 28.550,48.812 28.230 C 48.779 28.131,48.680 28.049,48.592 28.049 C 48.181 28.049,47.387 26.867,47.387 26.255 C 47.387 26.033,47.277 25.700,47.143 25.517 C 46.934 25.231,46.934 25.134,47.143 24.835 C 47.277 24.644,47.387 24.324,47.387 24.125 C 47.387 23.672,47.770 22.825,47.977 22.824 C 48.061 22.823,48.330 22.607,48.574 22.343 L 49.018 21.864 53.255 21.809 C 55.786 21.777,57.491 21.688,57.491 21.589 C 57.491 21.484,62.671 21.440,71.411 21.469 L 85.332 21.516 86.089 22.062 M56.865 25.174 C 56.865 26.707,56.892 27.311,56.924 26.516 C 56.957 25.721,56.956 24.467,56.924 23.729 C 56.891 22.991,56.865 23.641,56.865 25.174 M92.035 37.343 C 92.724 37.631,93.846 38.845,94.029 39.499 C 94.206 40.134,94.204 60.348,94.027 61.184 C 93.829 62.118,92.632 63.286,91.568 63.584 C 90.336 63.929,43.458 63.701,42.625 63.346 C 41.757 62.976,40.827 61.921,40.610 61.062 C 40.345 60.008,40.345 40.604,40.611 39.634 C 40.828 38.840,42.232 37.357,42.885 37.233 C 44.055 37.010,91.494 37.116,92.035 37.343 M39.480 77.331 C 38.824 78.004,37.207 78.920,36.678 78.920 C 36.525 78.920,36.128 79.033,35.796 79.172 L 35.192 79.425 35.192 80.718 L 35.192 82.011 36.019 82.756 C 36.474 83.166,37.602 84.230,38.526 85.121 C 39.449 86.012,40.253 86.693,40.311 86.634 C 40.472 86.474,40.440 76.655,40.279 76.655 C 40.203 76.655,39.843 76.959,39.480 77.331 " stroke="none" fill="#1bb1f3" fill-rule="evenodd"></path><path id="path3" d="M57.491 21.589 C 57.491 21.688,55.786 21.777,53.255 21.809 L 49.018 21.864 48.574 22.343 C 48.330 22.607,48.061 22.823,47.977 22.824 C 47.770 22.825,47.387 23.672,47.387 24.125 C 47.387 24.324,47.277 24.644,47.143 24.835 C 46.934 25.134,46.934 25.231,47.143 25.517 C 47.277 25.700,47.387 26.033,47.387 26.255 C 47.387 26.867,48.181 28.049,48.592 28.049 C 48.680 28.049,48.779 28.131,48.812 28.230 C 48.919 28.550,51.048 28.749,54.108 28.725 C 56.060 28.710,57.212 28.771,57.458 28.902 C 57.733 29.049,61.452 29.090,71.497 29.055 L 85.162 29.007 85.912 28.479 C 88.318 26.788,88.402 23.732,86.089 22.062 L 85.332 21.516 71.411 21.469 C 62.671 21.440,57.491 21.484,57.491 21.589 M56.924 26.516 C 56.892 27.311,56.865 26.707,56.865 25.174 C 56.865 23.641,56.891 22.991,56.924 23.729 C 56.956 24.467,56.957 25.721,56.924 26.516 M147.561 37.201 C 147.561 37.482,147.833 37.546,147.985 37.300 C 148.038 37.215,147.964 37.100,147.821 37.045 C 147.663 36.984,147.561 37.045,147.561 37.201 M42.596 37.433 C 41.601 37.886,40.822 38.875,40.594 39.974 C 40.250 41.630,40.435 60.935,40.801 61.603 C 41.149 62.239,42.197 63.197,42.791 63.423 C 43.541 63.708,90.571 63.863,91.568 63.584 C 92.632 63.286,93.829 62.118,94.027 61.184 C 94.204 60.348,94.206 40.134,94.029 39.499 C 93.846 38.845,92.724 37.631,92.035 37.343 C 91.034 36.923,43.524 37.010,42.596 37.433 M66.915 43.470 C 68.467 44.464,68.475 46.524,66.932 47.701 L 66.317 48.171 59.073 48.224 C 50.993 48.282,50.930 48.278,50.086 47.536 C 48.589 46.222,49.085 43.592,50.932 43.044 C 52.240 42.656,66.226 43.029,66.915 43.470 M51.555 68.811 L 42.918 68.902 42.185 69.388 C 41.781 69.655,41.362 69.819,41.253 69.751 C 41.121 69.669,41.095 69.732,41.176 69.942 C 41.800 71.568,41.652 73.929,40.832 75.442 C 40.406 76.227,40.403 76.264,40.367 81.539 C 40.340 85.462,40.278 86.837,40.128 86.808 C 40.017 86.787,40.183 87.152,40.498 87.619 C 41.604 89.264,41.857 91.606,41.180 93.946 C 41.131 94.114,41.171 94.251,41.269 94.251 C 41.366 94.251,41.794 94.486,42.220 94.774 L 42.995 95.296 67.325 95.296 C 94.419 95.296,92.164 95.400,93.336 94.097 C 94.163 93.177,94.164 93.172,94.164 81.794 C 94.164 70.186,94.229 70.858,92.988 69.697 C 91.818 68.602,92.414 68.637,75.535 68.681 C 67.096 68.702,56.305 68.761,51.555 68.811 M66.725 75.010 C 68.418 76.004,68.521 78.196,66.932 79.409 L 66.317 79.878 59.073 79.932 C 51.000 79.992,50.932 79.986,50.086 79.244 C 48.589 77.930,49.085 75.301,50.932 74.750 C 52.162 74.384,66.048 74.612,66.725 75.010 M42.764 100.786 C 40.649 101.810,39.580 105.029,40.691 107.033 C 41.801 109.038,41.855 111.994,40.811 113.654 C 40.387 114.328,40.386 114.340,40.410 118.863 C 40.440 124.847,40.598 125.472,42.360 126.584 L 43.024 127.003 67.375 127.003 C 94.313 127.002,91.993 127.095,93.160 125.974 C 94.205 124.971,94.164 125.474,94.164 113.749 L 94.164 103.021 93.638 102.172 C 93.256 101.553,92.860 101.190,92.181 100.835 L 91.249 100.348 67.445 100.355 L 43.641 100.361 42.764 100.786 M66.674 106.579 C 68.484 107.614,68.480 110.292,66.667 111.283 C 65.948 111.677,52.133 111.848,50.993 111.478 C 48.702 110.733,48.561 107.496,50.775 106.512 C 51.516 106.183,66.089 106.244,66.674 106.579 " stroke="none" fill="#dae3fb" fill-rule="evenodd"></path><path id="path4" d="M18.579 30.401 C 18.435 30.544,18.038 30.662,17.695 30.662 C 17.258 30.662,17.073 30.740,17.073 30.923 C 17.073 31.086,16.909 31.185,16.638 31.185 C 16.398 31.185,16.202 31.255,16.202 31.340 C 16.202 31.425,16.006 31.545,15.767 31.605 C 15.527 31.665,15.331 31.791,15.331 31.885 C 15.331 31.979,15.255 32.056,15.163 32.056 C 14.848 32.056,13.937 33.088,13.937 33.444 C 13.937 33.642,13.823 33.798,13.676 33.798 C 13.532 33.798,13.415 33.907,13.415 34.041 C 13.415 34.174,13.297 34.328,13.153 34.384 C 13.010 34.439,12.892 34.643,12.892 34.838 C 12.892 35.032,12.814 35.192,12.718 35.192 C 12.622 35.192,12.544 35.497,12.544 35.870 C 12.544 36.312,12.453 36.583,12.282 36.648 C 12.073 36.729,12.021 37.114,12.021 38.589 C 12.021 40.064,12.073 40.449,12.282 40.529 C 12.453 40.595,12.544 40.866,12.544 41.308 C 12.544 41.681,12.622 41.986,12.718 41.986 C 12.814 41.986,12.892 42.145,12.892 42.340 C 12.892 42.535,13.010 42.739,13.153 42.794 C 13.297 42.849,13.415 42.996,13.415 43.121 C 13.415 43.245,13.748 43.548,14.155 43.793 C 14.951 44.274,15.120 44.420,18.561 47.624 C 19.810 48.787,21.724 50.562,22.813 51.568 C 26.070 54.576,26.194 54.700,26.075 54.819 C 26.012 54.883,25.626 54.824,25.219 54.688 C 19.895 52.922,14.741 57.592,16.124 62.927 C 16.531 64.496,17.139 65.418,18.785 66.958 C 19.313 67.453,19.953 68.053,20.207 68.293 C 22.035 70.014,24.776 72.549,25.399 73.094 C 26.283 73.867,26.160 74.208,25.154 73.775 C 21.082 72.027,15.854 75.703,15.854 80.314 C 15.854 83.249,16.538 84.110,25.061 91.903 C 26.225 92.967,26.112 93.729,24.930 92.790 C 23.857 91.939,19.862 92.808,18.246 94.244 C 14.691 97.405,15.088 101.810,19.278 105.668 C 21.925 108.106,23.756 109.806,25.174 111.143 C 25.845 111.776,27.178 112.993,28.136 113.849 C 29.094 114.704,30.022 115.537,30.197 115.699 C 33.998 119.205,40.631 116.752,41.471 111.530 C 41.931 108.674,41.135 106.962,37.987 104.034 C 36.786 102.917,35.448 101.651,35.013 101.220 C 34.579 100.788,33.579 99.856,32.791 99.148 C 32.003 98.439,31.359 97.793,31.359 97.710 C 31.359 97.510,32.183 97.518,32.307 97.719 C 32.528 98.076,34.801 98.322,35.845 98.102 C 41.700 96.868,43.564 89.784,39.062 85.875 C 38.706 85.566,37.368 84.325,36.090 83.118 C 34.811 81.911,33.210 80.407,32.533 79.775 C 31.237 78.568,31.171 78.160,32.353 78.673 C 35.173 79.898,39.436 78.212,40.931 75.280 C 42.461 72.281,41.530 69.075,38.246 66.033 C 37.674 65.503,36.459 64.358,35.545 63.488 C 34.632 62.618,32.829 60.932,31.538 59.742 C 30.247 58.552,28.855 57.238,28.445 56.822 L 27.700 56.066 27.700 45.203 L 27.700 34.340 26.703 33.416 C 24.513 31.387,24.222 31.089,24.219 30.880 C 24.217 30.743,23.963 30.662,23.538 30.662 C 23.096 30.662,22.825 30.571,22.759 30.401 C 22.679 30.190,22.286 30.139,20.750 30.139 C 19.285 30.139,18.779 30.200,18.579 30.401 M111.585 34.823 C 109.769 35.431,108.512 36.480,107.578 38.167 L 107.056 39.111 106.945 82.997 C 106.884 107.134,106.780 127.439,106.714 128.119 C 106.235 133.041,102.842 137.068,97.978 138.488 C 96.756 138.845,96.467 138.850,76.898 138.851 C 65.985 138.852,56.412 138.902,55.625 138.964 L 54.194 139.075 54.570 139.616 C 59.133 146.165,67.646 152.735,76.742 156.726 C 80.147 158.220,81.053 158.760,84.649 161.439 C 89.111 164.762,92.095 168.909,92.902 172.909 C 93.042 173.608,93.234 174.121,93.351 174.111 C 93.463 174.102,94.181 174.082,94.948 174.068 C 96.059 174.047,96.341 173.989,96.341 173.780 C 96.341 173.569,96.623 173.519,97.828 173.519 C 98.988 173.519,99.336 173.462,99.414 173.258 C 99.489 173.063,99.799 172.997,100.628 172.997 C 101.255 172.997,101.742 172.920,101.742 172.822 C 101.742 172.726,102.056 172.648,102.439 172.648 C 102.942 172.648,103.136 172.575,103.136 172.387 C 103.136 172.181,103.378 172.125,104.268 172.125 C 104.907 172.125,105.401 172.049,105.401 171.951 C 105.401 171.855,105.714 171.777,106.098 171.777 C 106.601 171.777,106.794 171.704,106.794 171.516 C 106.794 171.327,106.988 171.254,107.491 171.254 C 107.995 171.254,108.188 171.182,108.188 170.993 C 108.188 170.796,108.401 170.732,109.059 170.732 C 109.538 170.732,109.930 170.653,109.930 170.557 C 109.930 170.462,110.244 170.383,110.627 170.383 C 111.130 170.383,111.324 170.311,111.324 170.122 C 111.324 169.959,111.489 169.861,111.760 169.861 C 111.999 169.861,112.195 169.782,112.195 169.686 C 112.195 169.591,112.425 169.512,112.705 169.512 C 112.986 169.512,113.333 169.395,113.477 169.251 C 113.621 169.107,113.981 168.990,114.279 168.990 C 114.599 168.990,114.860 168.883,114.920 168.728 C 114.975 168.584,115.207 168.467,115.437 168.467 C 115.666 168.467,115.854 168.389,115.854 168.293 C 115.854 168.197,116.079 168.118,116.355 168.118 C 116.631 168.118,116.954 168.001,117.073 167.857 C 117.192 167.713,117.476 167.596,117.704 167.596 C 117.932 167.596,118.118 167.526,118.118 167.440 C 118.118 167.355,118.314 167.236,118.554 167.176 C 118.794 167.116,118.990 166.990,118.990 166.896 C 118.990 166.802,119.188 166.725,119.431 166.725 C 119.673 166.725,119.917 166.607,119.972 166.463 C 120.027 166.320,120.260 166.202,120.489 166.202 C 120.718 166.202,120.906 166.124,120.906 166.028 C 120.906 165.932,121.065 165.854,121.260 165.854 C 121.454 165.854,121.659 165.736,121.714 165.592 C 121.769 165.449,122.002 165.331,122.231 165.331 C 122.460 165.331,122.648 165.253,122.648 165.157 C 122.648 165.061,122.807 164.983,123.002 164.983 C 123.197 164.983,123.401 164.865,123.456 164.721 C 123.511 164.578,123.666 164.460,123.799 164.460 C 123.933 164.460,124.042 164.342,124.042 164.199 C 124.042 164.036,124.206 163.937,124.477 163.937 C 124.717 163.937,124.913 163.859,124.913 163.763 C 124.913 163.667,125.109 163.589,125.348 163.589 C 125.619 163.589,125.784 163.490,125.784 163.328 C 125.784 163.165,125.949 163.066,126.220 163.066 C 126.459 163.066,126.655 162.988,126.655 162.892 C 126.655 162.796,126.773 162.718,126.916 162.718 C 127.060 162.718,127.178 162.600,127.178 162.456 C 127.178 162.294,127.342 162.195,127.613 162.195 C 127.884 162.195,128.049 162.096,128.049 161.934 C 128.049 161.790,128.151 161.672,128.275 161.672 C 128.675 161.672,129.440 161.244,129.441 161.019 C 129.442 160.899,129.639 160.801,129.878 160.801 C 130.118 160.801,130.314 160.723,130.314 160.627 C 130.314 160.531,130.431 160.453,130.575 160.453 C 130.719 160.453,130.836 160.345,130.836 160.212 C 130.836 160.079,130.973 159.925,131.141 159.869 C 131.781 159.654,132.578 159.018,132.578 158.723 C 132.578 158.621,132.774 158.537,133.014 158.537 C 133.253 158.537,133.449 158.458,133.449 158.362 C 133.449 158.267,133.567 158.188,133.711 158.188 C 133.855 158.188,133.972 158.071,133.972 157.927 C 133.972 157.783,134.090 157.666,134.233 157.666 C 134.377 157.666,134.495 157.548,134.495 157.404 C 134.495 157.254,134.652 157.143,134.866 157.143 C 135.070 157.143,135.496 156.868,135.813 156.533 C 136.129 156.198,136.471 155.923,136.574 155.923 C 136.676 155.923,136.760 155.806,136.760 155.662 C 136.760 155.518,136.837 155.401,136.931 155.401 C 137.228 155.401,138.488 154.453,138.495 154.225 C 138.499 154.105,138.586 154.007,138.688 154.007 C 138.930 154.007,139.373 153.564,139.373 153.323 C 139.373 153.220,139.490 153.136,139.634 153.136 C 139.778 153.136,139.895 153.018,139.895 152.875 C 139.895 152.731,139.979 152.613,140.082 152.613 C 140.323 152.613,140.767 152.170,140.767 151.929 C 140.767 151.826,140.884 151.742,141.028 151.742 C 141.172 151.742,141.289 151.631,141.289 151.495 C 141.289 151.360,141.383 151.217,141.498 151.179 C 141.642 151.131,141.538 150.710,141.162 149.814 C 140.862 149.102,140.291 147.657,139.893 146.603 C 139.495 145.549,138.988 144.216,138.767 143.641 C 138.547 143.066,138.267 142.321,138.146 141.986 C 138.026 141.651,137.832 141.141,137.715 140.854 C 137.282 139.784,136.923 138.846,135.546 135.192 C 134.769 133.132,134.064 131.289,133.978 131.098 C 133.892 130.906,133.539 129.976,133.194 129.030 C 132.849 128.085,132.343 126.831,132.070 126.243 C 130.743 123.389,130.241 119.476,130.659 115.244 C 130.772 114.094,130.934 112.448,131.018 111.585 C 131.102 110.723,131.293 108.920,131.441 107.578 C 132.027 102.274,132.097 101.059,132.003 97.822 C 131.915 94.810,131.532 91.491,131.016 89.286 C 130.927 88.902,130.775 88.236,130.679 87.805 C 130.318 86.185,128.682 81.663,128.038 80.505 C 127.953 80.352,127.369 79.129,126.740 77.787 C 126.112 76.446,125.531 75.228,125.451 75.080 C 124.450 73.250,121.874 66.180,121.349 63.824 C 120.570 60.319,120.524 59.621,120.402 49.390 L 120.284 39.460 119.786 38.448 C 118.266 35.361,114.693 33.781,111.585 34.823 " stroke="none" fill="#fba462" fill-rule="evenodd"></path></g></svg>